<svg xmlns="http://www.w3.org/2000/svg" xmlns:xlink="http://www.w3.org/1999/xlink" width="1080" zoomAndPan="magnify" viewBox="0 0 810 809.999993" height="1080" preserveAspectRatio="xMidYMid meet" version="1.0"><path fill="#e30016" d="M 399.972656 26.253906 C 406.15625 26.253906 412.332031 26.40625 418.507812 26.707031 C 424.679688 27.011719 430.84375 27.464844 436.992188 28.074219 C 443.144531 28.679688 449.277344 29.433594 455.390625 30.339844 C 461.503906 31.25 467.59375 32.304688 473.65625 33.511719 C 479.71875 34.71875 485.746094 36.070312 491.742188 37.574219 C 497.738281 39.074219 503.695312 40.722656 509.609375 42.519531 C 515.523438 44.3125 521.390625 46.25 527.210938 48.332031 C 533.03125 50.417969 538.792969 52.640625 544.503906 55.007812 C 550.214844 57.371094 555.863281 59.875 561.453125 62.519531 C 567.039062 65.160156 572.558594 67.941406 578.011719 70.855469 C 583.460938 73.769531 588.839844 76.816406 594.140625 79.992188 C 599.441406 83.171875 604.660156 86.476562 609.800781 89.910156 C 614.941406 93.347656 619.992188 96.90625 624.957031 100.585938 C 629.921875 104.269531 634.792969 108.070312 639.570312 111.992188 C 644.347656 115.914062 649.027344 119.949219 653.605469 124.101562 C 658.1875 128.253906 662.664062 132.515625 667.03125 136.886719 C 671.402344 141.257812 675.664062 145.734375 679.816406 150.3125 C 683.964844 154.894531 688.003906 159.574219 691.921875 164.351562 C 695.84375 169.128906 699.644531 174.003906 703.328125 178.96875 C 707.011719 183.933594 710.566406 188.984375 714.003906 194.125 C 717.4375 199.265625 720.742188 204.484375 723.917969 209.789062 C 727.097656 215.089844 730.144531 220.46875 733.058594 225.917969 C 735.96875 231.371094 738.75 236.890625 741.390625 242.480469 C 744.035156 248.066406 746.539062 253.71875 748.902344 259.429688 C 751.269531 265.140625 753.492188 270.90625 755.574219 276.726562 C 757.65625 282.546875 759.59375 288.414062 761.390625 294.332031 C 763.183594 300.246094 764.832031 306.203125 766.332031 312.199219 C 767.835938 318.195312 769.191406 324.222656 770.394531 330.285156 C 771.601562 336.351562 772.65625 342.4375 773.566406 348.554688 C 774.472656 354.667969 775.226562 360.800781 775.832031 366.953125 C 776.441406 373.105469 776.894531 379.269531 777.199219 385.445312 C 777.5 391.617188 777.652344 397.796875 777.652344 403.976562 C 777.652344 410.160156 777.5 416.335938 777.199219 422.511719 C 776.894531 428.6875 776.441406 434.847656 775.832031 441 C 775.226562 447.152344 774.472656 453.285156 773.566406 459.402344 C 772.65625 465.515625 771.601562 471.605469 770.394531 477.667969 C 769.191406 483.730469 767.835938 489.761719 766.335938 495.757812 C 764.832031 501.753906 763.183594 507.710938 761.390625 513.625 C 759.59375 519.539062 757.65625 525.410156 755.574219 531.230469 C 753.492188 537.050781 751.269531 542.816406 748.902344 548.527344 C 746.539062 554.238281 744.035156 559.886719 741.390625 565.476562 C 738.75 571.0625 735.96875 576.582031 733.058594 582.035156 C 730.144531 587.488281 727.097656 592.863281 723.917969 598.164062 C 720.742188 603.46875 717.4375 608.6875 714.003906 613.828125 C 710.566406 618.96875 707.011719 624.023438 703.328125 628.988281 C 699.644531 633.953125 695.84375 638.824219 691.921875 643.601562 C 688.003906 648.382812 683.964844 653.0625 679.816406 657.640625 C 675.664062 662.222656 671.402344 666.695312 667.03125 671.066406 C 662.664062 675.4375 658.1875 679.699219 653.605469 683.851562 C 649.027344 688.003906 644.347656 692.039062 639.570312 695.960938 C 634.792969 699.882812 629.921875 703.683594 624.957031 707.367188 C 619.992188 711.050781 614.941406 714.609375 609.800781 718.042969 C 604.660156 721.476562 599.441406 724.785156 594.140625 727.960938 C 588.839844 731.140625 583.460938 734.1875 578.011719 737.101562 C 572.558594 740.015625 567.039062 742.792969 561.453125 745.4375 C 555.863281 748.078125 550.214844 750.582031 544.503906 752.949219 C 538.792969 755.3125 533.03125 757.539062 527.210938 759.621094 C 521.390625 761.703125 515.523438 763.640625 509.609375 765.4375 C 503.695312 767.230469 497.738281 768.878906 491.742188 770.382812 C 485.746094 771.882812 479.71875 773.238281 473.65625 774.441406 C 467.59375 775.648438 461.503906 776.707031 455.390625 777.613281 C 449.277344 778.519531 443.144531 779.277344 436.992188 779.882812 C 430.839844 780.488281 424.679688 780.941406 418.503906 781.246094 C 412.332031 781.550781 406.15625 781.699219 399.972656 781.699219 C 393.792969 781.699219 387.617188 781.550781 381.441406 781.246094 C 375.269531 780.941406 369.105469 780.488281 362.953125 779.882812 C 356.804688 779.277344 350.671875 778.519531 344.558594 777.613281 C 338.441406 776.707031 332.355469 775.648438 326.292969 774.441406 C 320.230469 773.238281 314.203125 771.882812 308.207031 770.382812 C 302.210938 768.878906 296.253906 767.230469 290.339844 765.4375 C 284.425781 763.640625 278.558594 761.703125 272.738281 759.621094 C 266.917969 757.539062 261.152344 755.3125 255.441406 752.949219 C 249.730469 750.582031 244.082031 748.078125 238.496094 745.4375 C 232.90625 742.792969 227.386719 740.015625 221.9375 737.101562 C 216.484375 734.1875 211.109375 731.140625 205.808594 727.960938 C 200.507812 724.785156 195.285156 721.476562 190.148438 718.042969 C 185.007812 714.609375 179.957031 711.050781 174.992188 707.367188 C 170.027344 703.6875 165.15625 699.882812 160.378906 695.960938 C 155.597656 692.039062 150.921875 688.003906 146.339844 683.851562 C 141.761719 679.699219 137.285156 675.441406 132.914062 671.070312 C 128.542969 666.699219 124.285156 662.222656 120.132812 657.640625 C 115.980469 653.0625 111.945312 648.382812 108.023438 643.601562 C 104.101562 638.824219 100.300781 633.953125 96.621094 628.988281 C 92.9375 624.023438 89.378906 618.96875 85.945312 613.828125 C 82.511719 608.691406 79.207031 603.46875 76.027344 598.167969 C 72.851562 592.863281 69.804688 587.488281 66.890625 582.035156 C 63.976562 576.582031 61.199219 571.0625 58.554688 565.476562 C 55.914062 559.886719 53.410156 554.238281 51.042969 548.527344 C 48.679688 542.816406 46.457031 537.050781 44.371094 531.230469 C 42.289062 525.410156 40.351562 519.539062 38.558594 513.625 C 36.765625 507.710938 35.117188 501.753906 33.613281 495.757812 C 32.113281 489.761719 30.757812 483.730469 29.550781 477.667969 C 28.347656 471.605469 27.289062 465.515625 26.382812 459.402344 C 25.476562 453.285156 24.71875 447.152344 24.113281 441 C 23.507812 434.847656 23.054688 428.6875 22.75 422.511719 C 22.445312 416.335938 22.296875 410.160156 22.296875 403.976562 C 22.296875 397.796875 22.445312 391.617188 22.75 385.441406 C 23.054688 379.269531 23.507812 373.105469 24.113281 366.953125 C 24.71875 360.800781 25.476562 354.667969 26.382812 348.554688 C 27.289062 342.4375 28.347656 336.351562 29.550781 330.285156 C 30.757812 324.222656 32.113281 318.195312 33.613281 312.199219 C 35.117188 306.203125 36.765625 300.246094 38.558594 294.328125 C 40.351562 288.414062 42.289062 282.546875 44.371094 276.726562 C 46.457031 270.90625 48.679688 265.140625 51.042969 259.429688 C 53.410156 253.71875 55.914062 248.066406 58.554688 242.480469 C 61.199219 236.890625 63.976562 231.371094 66.890625 225.917969 C 69.804688 220.46875 72.851562 215.089844 76.027344 209.789062 C 79.207031 204.484375 82.511719 199.265625 85.945312 194.125 C 89.378906 188.984375 92.9375 183.933594 96.621094 178.96875 C 100.300781 174.003906 104.101562 169.128906 108.023438 164.351562 C 111.945312 159.574219 115.980469 154.894531 120.132812 150.3125 C 124.285156 145.734375 128.542969 141.257812 132.914062 136.886719 C 137.285156 132.515625 141.761719 128.253906 146.339844 124.101562 C 150.921875 119.949219 155.597656 115.914062 160.378906 111.992188 C 165.15625 108.070312 170.027344 104.269531 174.992188 100.585938 C 179.957031 96.902344 185.007812 93.347656 190.148438 89.910156 C 195.285156 86.476562 200.507812 83.171875 205.808594 79.992188 C 211.109375 76.816406 216.488281 73.769531 221.9375 70.855469 C 227.390625 67.941406 232.90625 65.160156 238.496094 62.519531 C 244.082031 59.875 249.730469 57.371094 255.441406 55.007812 C 261.152344 52.640625 266.917969 50.417969 272.738281 48.332031 C 278.558594 46.25 284.425781 44.3125 290.339844 42.519531 C 296.253906 40.722656 302.210938 39.074219 308.207031 37.574219 C 314.203125 36.070312 320.230469 34.71875 326.292969 33.511719 C 332.355469 32.304688 338.441406 31.25 344.558594 30.339844 C 350.671875 29.433594 356.804688 28.679688 362.957031 28.070312 C 369.105469 27.464844 375.269531 27.011719 381.441406 26.707031 C 387.617188 26.40625 393.792969 26.253906 399.972656 26.253906 Z M 399.972656 26.253906 " fill-opacity="1" fill-rule="evenodd"/><path fill="#ffffff" d="M 399.972656 67.558594 C 405.480469 67.558594 410.980469 67.695312 416.480469 67.964844 C 421.976562 68.234375 427.464844 68.640625 432.945312 69.179688 C 438.421875 69.71875 443.886719 70.394531 449.332031 71.199219 C 454.777344 72.007812 460.199219 72.949219 465.597656 74.023438 C 470.996094 75.097656 476.367188 76.304688 481.707031 77.640625 C 487.046875 78.980469 492.351562 80.449219 497.621094 82.046875 C 502.886719 83.644531 508.113281 85.371094 513.296875 87.226562 C 518.480469 89.078125 523.613281 91.0625 528.699219 93.167969 C 533.785156 95.273438 538.816406 97.503906 543.792969 99.859375 C 548.769531 102.214844 553.6875 104.6875 558.542969 107.285156 C 563.394531 109.878906 568.183594 112.589844 572.90625 115.421875 C 577.628906 118.253906 582.277344 121.195312 586.855469 124.257812 C 591.433594 127.316406 595.933594 130.484375 600.355469 133.765625 C 604.777344 137.042969 609.113281 140.429688 613.371094 143.921875 C 617.625 147.414062 621.792969 151.011719 625.871094 154.707031 C 629.949219 158.40625 633.9375 162.199219 637.828125 166.09375 C 641.722656 169.988281 645.515625 173.972656 649.214844 178.054688 C 652.910156 182.132812 656.503906 186.300781 659.996094 190.554688 C 663.488281 194.8125 666.875 199.152344 670.15625 203.574219 C 673.433594 207.996094 676.601562 212.496094 679.660156 217.074219 C 682.71875 221.652344 685.664062 226.300781 688.496094 231.023438 C 691.324219 235.746094 694.039062 240.535156 696.632812 245.390625 C 699.226562 250.246094 701.703125 255.164062 704.054688 260.140625 C 706.410156 265.117188 708.640625 270.148438 710.746094 275.234375 C 712.851562 280.324219 714.832031 285.457031 716.6875 290.640625 C 718.542969 295.824219 720.269531 301.050781 721.867188 306.320312 C 723.464844 311.589844 724.933594 316.894531 726.269531 322.234375 C 727.609375 327.574219 728.8125 332.945312 729.886719 338.34375 C 730.960938 343.746094 731.902344 349.167969 732.710938 354.613281 C 733.519531 360.0625 734.191406 365.523438 734.730469 371.003906 C 735.269531 376.480469 735.675781 381.972656 735.945312 387.46875 C 736.214844 392.96875 736.351562 398.472656 736.351562 403.976562 C 736.351562 409.484375 736.214844 414.984375 735.945312 420.484375 C 735.675781 425.984375 735.269531 431.472656 734.730469 436.953125 C 734.191406 442.429688 733.519531 447.894531 732.710938 453.339844 C 731.902344 458.785156 730.960938 464.210938 729.886719 469.609375 C 728.8125 475.007812 727.609375 480.378906 726.269531 485.71875 C 724.933594 491.0625 723.464844 496.367188 721.867188 501.632812 C 720.269531 506.902344 718.542969 512.128906 716.6875 517.3125 C 714.832031 522.496094 712.851562 527.632812 710.746094 532.71875 C 708.640625 537.804688 706.410156 542.835938 704.054688 547.816406 C 701.703125 552.792969 699.226562 557.707031 696.632812 562.5625 C 694.039062 567.417969 691.324219 572.207031 688.496094 576.929688 C 685.664062 581.652344 682.71875 586.304688 679.660156 590.882812 C 676.601562 595.457031 673.433594 599.957031 670.15625 604.382812 C 666.875 608.804688 663.488281 613.144531 659.996094 617.398438 C 656.503906 621.65625 652.910156 625.824219 649.214844 629.902344 C 645.515625 633.980469 641.722656 637.96875 637.828125 641.859375 C 633.9375 645.753906 629.949219 649.550781 625.871094 653.246094 C 621.792969 656.945312 617.625 660.539062 613.371094 664.03125 C 609.113281 667.523438 604.777344 670.910156 600.355469 674.191406 C 595.933594 677.46875 591.433594 680.640625 586.855469 683.699219 C 582.277344 686.757812 577.628906 689.703125 572.90625 692.53125 C 568.183594 695.363281 563.394531 698.074219 558.542969 700.671875 C 553.6875 703.265625 548.769531 705.742188 543.792969 708.09375 C 538.816406 710.449219 533.785156 712.679688 528.699219 714.785156 C 523.613281 716.894531 518.480469 718.875 513.296875 720.730469 C 508.113281 722.585938 502.886719 724.3125 497.621094 725.910156 C 492.351562 727.507812 487.046875 728.976562 481.707031 730.3125 C 476.367188 731.652344 470.996094 732.855469 465.597656 733.929688 C 460.199219 735.003906 454.777344 735.945312 449.332031 736.753906 C 443.886719 737.5625 438.421875 738.234375 432.945312 738.773438 C 427.464844 739.316406 421.976562 739.71875 416.480469 739.988281 C 410.980469 740.261719 405.480469 740.394531 399.972656 740.394531 C 394.46875 740.394531 388.96875 740.261719 383.46875 739.988281 C 377.96875 739.71875 372.480469 739.316406 367.003906 738.773438 C 361.523438 738.234375 356.0625 737.5625 350.617188 736.753906 C 345.171875 735.945312 339.75 735.003906 334.351562 733.929688 C 328.949219 732.855469 323.582031 731.652344 318.242188 730.3125 C 312.902344 728.976562 307.597656 727.507812 302.328125 725.910156 C 297.0625 724.3125 291.835938 722.585938 286.652344 720.730469 C 281.46875 718.875 276.332031 716.894531 271.246094 714.785156 C 266.160156 712.679688 261.128906 710.449219 256.152344 708.09375 C 251.175781 705.742188 246.261719 703.265625 241.40625 700.671875 C 236.550781 698.074219 231.761719 695.363281 227.042969 692.53125 C 222.320312 689.703125 217.671875 686.757812 213.09375 683.699219 C 208.515625 680.640625 204.015625 677.46875 199.59375 674.191406 C 195.171875 670.910156 190.832031 667.523438 186.578125 664.03125 C 182.324219 660.539062 178.15625 656.945312 174.078125 653.246094 C 169.996094 649.550781 166.011719 645.753906 162.121094 641.859375 C 158.226562 637.96875 154.433594 633.980469 150.734375 629.902344 C 147.039062 625.820312 143.441406 621.65625 139.949219 617.398438 C 136.457031 613.140625 133.074219 608.804688 129.792969 604.382812 C 126.515625 599.957031 123.34375 595.457031 120.285156 590.882812 C 117.226562 586.304688 114.285156 581.652344 111.453125 576.929688 C 108.625 572.207031 105.910156 567.417969 103.316406 562.5625 C 100.71875 557.707031 98.246094 552.792969 95.890625 547.8125 C 93.539062 542.835938 91.308594 537.804688 89.203125 532.71875 C 87.09375 527.632812 85.113281 522.496094 83.261719 517.3125 C 81.40625 512.128906 79.679688 506.902344 78.082031 501.632812 C 76.484375 496.367188 75.015625 491.0625 73.675781 485.71875 C 72.339844 480.378906 71.132812 475.007812 70.058594 469.609375 C 68.984375 464.210938 68.046875 458.785156 67.238281 453.339844 C 66.429688 447.894531 65.757812 442.429688 65.214844 436.953125 C 64.675781 431.472656 64.273438 425.984375 64 420.484375 C 63.730469 414.984375 63.597656 409.484375 63.597656 403.976562 C 63.597656 398.472656 63.730469 392.96875 64 387.46875 C 64.273438 381.972656 64.675781 376.480469 65.214844 371.003906 C 65.757812 365.523438 66.429688 360.0625 67.238281 354.613281 C 68.046875 349.167969 68.984375 343.746094 70.058594 338.34375 C 71.132812 332.945312 72.339844 327.574219 73.675781 322.234375 C 75.015625 316.894531 76.484375 311.589844 78.082031 306.320312 C 79.679688 301.050781 81.40625 295.824219 83.261719 290.640625 C 85.113281 285.457031 87.09375 280.324219 89.203125 275.234375 C 91.308594 270.148438 93.539062 265.117188 95.890625 260.140625 C 98.246094 255.164062 100.71875 250.246094 103.316406 245.390625 C 105.910156 240.535156 108.625 235.746094 111.453125 231.023438 C 114.285156 226.300781 117.226562 221.652344 120.285156 217.074219 C 123.34375 212.496094 126.515625 207.996094 129.792969 203.574219 C 133.074219 199.152344 136.457031 194.8125 139.949219 190.554688 C 143.441406 186.300781 147.039062 182.132812 150.734375 178.054688 C 154.433594 173.972656 158.226562 169.988281 162.121094 166.09375 C 166.011719 162.199219 169.996094 158.40625 174.078125 154.707031 C 178.15625 151.011719 182.324219 147.414062 186.578125 143.921875 C 190.832031 140.429688 195.171875 137.042969 199.59375 133.765625 C 204.015625 130.484375 208.515625 127.316406 213.09375 124.257812 C 217.671875 121.195312 222.320312 118.253906 227.042969 115.421875 C 231.761719 112.589844 236.550781 109.878906 241.40625 107.285156 C 246.261719 104.6875 251.175781 102.214844 256.152344 99.859375 C 261.128906 97.503906 266.160156 95.273438 271.246094 93.167969 C 276.335938 91.0625 281.46875 89.078125 286.652344 87.226562 C 291.835938 85.371094 297.0625 83.644531 302.328125 82.046875 C 307.597656 80.449219 312.902344 78.980469 318.242188 77.640625 C 323.582031 76.304688 328.949219 75.097656 334.351562 74.023438 C 339.75 72.949219 345.171875 72.007812 350.617188 71.199219 C 356.0625 70.394531 361.523438 69.71875 367.003906 69.179688 C 372.480469 68.640625 377.96875 68.234375 383.46875 67.964844 C 388.96875 67.695312 394.46875 67.558594 399.972656 67.558594 Z M 399.972656 67.558594 " fill-opacity="1" fill-rule="evenodd"/><path fill="#000000" d="M 399.972656 78.011719 C 405.308594 78.011719 410.640625 78.140625 415.964844 78.402344 C 421.292969 78.664062 426.613281 79.058594 431.921875 79.578125 C 437.230469 80.101562 442.519531 80.753906 447.796875 81.539062 C 453.074219 82.320312 458.328125 83.234375 463.558594 84.273438 C 468.792969 85.3125 473.992188 86.484375 479.167969 87.777344 C 484.34375 89.074219 489.480469 90.496094 494.585938 92.046875 C 499.691406 93.59375 504.753906 95.265625 509.777344 97.066406 C 514.796875 98.863281 519.773438 100.78125 524.703125 102.824219 C 529.628906 104.863281 534.503906 107.023438 539.328125 109.304688 C 544.148438 111.585938 548.910156 113.984375 553.617188 116.5 C 558.320312 119.015625 562.960938 121.644531 567.535156 124.386719 C 572.109375 127.128906 576.613281 129.980469 581.050781 132.945312 C 585.484375 135.910156 589.84375 138.980469 594.128906 142.15625 C 598.414062 145.335938 602.617188 148.617188 606.742188 152 C 610.863281 155.386719 614.902344 158.867188 618.855469 162.453125 C 622.804688 166.035156 626.667969 169.710938 630.441406 173.484375 C 634.210938 177.253906 637.890625 181.117188 641.472656 185.070312 C 645.054688 189.023438 648.535156 193.0625 651.921875 197.1875 C 655.304688 201.308594 658.585938 205.515625 661.761719 209.796875 C 664.941406 214.082031 668.011719 218.445312 670.972656 222.878906 C 673.9375 227.316406 676.789062 231.820312 679.53125 236.398438 C 682.273438 240.972656 684.902344 245.613281 687.417969 250.316406 C 689.929688 255.023438 692.328125 259.785156 694.609375 264.609375 C 696.890625 269.429688 699.050781 274.304688 701.09375 279.234375 C 703.132812 284.164062 705.054688 289.140625 706.851562 294.164062 C 708.648438 299.183594 710.320312 304.25 711.867188 309.355469 C 713.417969 314.460938 714.839844 319.597656 716.132812 324.773438 C 717.429688 329.949219 718.597656 335.152344 719.640625 340.382812 C 720.679688 345.617188 721.59375 350.871094 722.375 356.148438 C 723.15625 361.425781 723.808594 366.71875 724.332031 372.027344 C 724.855469 377.335938 725.246094 382.65625 725.507812 387.984375 C 725.769531 393.3125 725.902344 398.644531 725.902344 403.976562 C 725.902344 409.3125 725.769531 414.644531 725.507812 419.972656 C 725.246094 425.300781 724.855469 430.617188 724.332031 435.929688 C 723.808594 441.238281 723.15625 446.53125 722.375 451.808594 C 721.59375 457.082031 720.679688 462.339844 719.640625 467.570312 C 718.597656 472.800781 717.429688 478.007812 716.132812 483.179688 C 714.839844 488.355469 713.417969 493.496094 711.867188 498.601562 C 710.320312 503.707031 708.648438 508.769531 706.851562 513.792969 C 705.054688 518.816406 703.132812 523.792969 701.09375 528.71875 C 699.050781 533.648438 696.890625 538.523438 694.609375 543.347656 C 692.328125 548.167969 689.929688 552.933594 687.417969 557.636719 C 684.902344 562.34375 682.273438 566.980469 679.53125 571.558594 C 676.789062 576.132812 673.9375 580.640625 670.972656 585.074219 C 668.011719 589.511719 664.941406 593.871094 661.761719 598.15625 C 658.585938 602.441406 655.304688 606.644531 651.921875 610.769531 C 648.535156 614.894531 645.054688 618.929688 641.472656 622.882812 C 637.890625 626.835938 634.210938 630.699219 630.441406 634.472656 C 626.667969 638.242188 622.804688 641.921875 618.855469 645.503906 C 614.902344 649.085938 610.863281 652.570312 606.742188 655.953125 C 602.617188 659.339844 598.414062 662.617188 594.128906 665.796875 C 589.84375 668.976562 585.484375 672.046875 581.050781 675.007812 C 576.613281 677.972656 572.109375 680.828125 567.535156 683.570312 C 562.960938 686.3125 558.320312 688.941406 553.617188 691.457031 C 548.910156 693.96875 544.148438 696.367188 539.328125 698.648438 C 534.503906 700.929688 529.628906 703.089844 524.703125 705.132812 C 519.773438 707.171875 514.796875 709.09375 509.777344 710.890625 C 504.753906 712.6875 499.691406 714.359375 494.585938 715.910156 C 489.480469 717.457031 484.34375 718.878906 479.167969 720.175781 C 473.992188 721.472656 468.789062 722.640625 463.558594 723.679688 C 458.328125 724.722656 453.074219 725.632812 447.796875 726.417969 C 442.519531 727.199219 437.230469 727.851562 431.921875 728.375 C 426.613281 728.898438 421.292969 729.289062 415.964844 729.550781 C 410.640625 729.8125 405.308594 729.945312 399.972656 729.945312 C 394.640625 729.945312 389.308594 729.8125 383.980469 729.550781 C 378.652344 729.289062 373.335938 728.898438 368.027344 728.375 C 362.71875 727.851562 357.425781 727.199219 352.148438 726.417969 C 346.875 725.632812 341.621094 724.722656 336.386719 723.679688 C 331.15625 722.640625 325.953125 721.472656 320.78125 720.175781 C 315.605469 718.878906 310.464844 717.457031 305.363281 715.910156 C 300.257812 714.359375 295.195312 712.6875 290.171875 710.890625 C 285.148438 709.09375 280.175781 707.171875 275.246094 705.132812 C 270.320312 703.089844 265.445312 700.929688 260.621094 698.648438 C 255.800781 696.367188 251.035156 693.96875 246.332031 691.457031 C 241.628906 688.941406 236.988281 686.3125 232.414062 683.570312 C 227.839844 680.828125 223.332031 677.972656 218.898438 675.007812 C 214.460938 672.046875 210.101562 668.976562 205.820312 665.796875 C 201.535156 662.621094 197.332031 659.339844 193.207031 655.953125 C 189.082031 652.570312 185.046875 649.085938 181.09375 645.503906 C 177.140625 641.921875 173.28125 638.242188 169.507812 634.472656 C 165.734375 630.699219 162.058594 626.835938 158.476562 622.882812 C 154.894531 618.929688 151.410156 614.894531 148.027344 610.769531 C 144.644531 606.644531 141.363281 602.441406 138.1875 598.15625 C 135.007812 593.871094 131.9375 589.511719 128.972656 585.074219 C 126.011719 580.640625 123.15625 576.132812 120.414062 571.558594 C 117.671875 566.984375 115.046875 562.34375 112.53125 557.636719 C 110.015625 552.933594 107.617188 548.167969 105.339844 543.347656 C 103.058594 538.523438 100.898438 533.648438 98.855469 528.71875 C 96.8125 523.792969 94.894531 518.816406 93.097656 513.792969 C 91.300781 508.769531 89.628906 503.707031 88.078125 498.601562 C 86.53125 493.496094 85.109375 488.355469 83.8125 483.179688 C 82.515625 478.007812 81.347656 472.800781 80.308594 467.570312 C 79.265625 462.339844 78.355469 457.082031 77.574219 451.808594 C 76.789062 446.53125 76.136719 441.238281 75.613281 435.929688 C 75.09375 430.617188 74.699219 425.300781 74.4375 419.972656 C 74.175781 414.644531 74.046875 409.3125 74.046875 403.976562 C 74.046875 398.644531 74.175781 393.3125 74.4375 387.984375 C 74.699219 382.65625 75.09375 377.335938 75.613281 372.027344 C 76.136719 366.71875 76.789062 361.425781 77.574219 356.148438 C 78.355469 350.871094 79.265625 345.617188 80.308594 340.382812 C 81.347656 335.152344 82.515625 329.949219 83.8125 324.773438 C 85.109375 319.597656 86.53125 314.460938 88.078125 309.355469 C 89.628906 304.25 91.300781 299.183594 93.097656 294.164062 C 94.894531 289.140625 96.8125 284.164062 98.855469 279.234375 C 100.898438 274.304688 103.058594 269.429688 105.339844 264.609375 C 107.617188 259.785156 110.015625 255.023438 112.53125 250.316406 C 115.046875 245.613281 117.671875 240.972656 120.414062 236.394531 C 123.15625 231.820312 126.011719 227.316406 128.972656 222.878906 C 131.9375 218.445312 135.007812 214.082031 138.1875 209.796875 C 141.363281 205.515625 144.644531 201.308594 148.027344 197.1875 C 151.410156 193.0625 154.894531 189.023438 158.476562 185.070312 C 162.058594 181.117188 165.734375 177.253906 169.507812 173.484375 C 173.28125 169.710938 177.140625 166.035156 181.09375 162.453125 C 185.046875 158.867188 189.082031 155.386719 193.207031 152 C 197.332031 148.617188 201.535156 145.335938 205.820312 142.15625 C 210.101562 138.980469 214.460938 135.910156 218.898438 132.945312 C 223.332031 129.980469 227.839844 127.128906 232.414062 124.386719 C 236.988281 121.644531 241.628906 119.015625 246.332031 116.5 C 251.035156 113.984375 255.800781 111.585938 260.621094 109.304688 C 265.445312 107.023438 270.320312 104.863281 275.246094 102.824219 C 280.175781 100.78125 285.148438 98.863281 290.171875 97.066406 C 295.195312 95.265625 300.257812 93.59375 305.363281 92.046875 C 310.464844 90.496094 315.605469 89.074219 320.78125 87.777344 C 325.953125 86.484375 331.15625 85.3125 336.386719 84.273438 C 341.621094 83.234375 346.875 82.320312 352.152344 81.539062 C 357.425781 80.753906 362.71875 80.101562 368.027344 79.578125 C 373.335938 79.058594 378.652344 78.664062 383.980469 78.402344 C 389.308594 78.140625 394.640625 78.011719 399.972656 78.011719 Z M 399.972656 78.011719 " fill-opacity="1" fill-rule="evenodd"/><path fill="#ffec00" d="M 389 139.285156 C 384.121094 171.078125 384.035156 184.71875 388.492188 216.328125 L 399.949219 216.292969 C 403.828125 194.546875 404.789062 169.214844 399.644531 138.441406 Z M 389 139.285156 " fill-opacity="1" fill-rule="evenodd"/><path fill="#ffec00" d="M 382.371094 230.699219 L 382.371094 329.070312 L 408.207031 325.769531 L 408.207031 230.695312 Z M 382.371094 230.699219 " fill-opacity="1" fill-rule="evenodd"/><path fill="#ffec00" d="M 267.914062 268.933594 C 293.414062 282.910156 298.03125 260.9375 291.90625 254.535156 L 243.921875 210.144531 C 223.066406 193.835938 205.503906 211.648438 225.929688 231.738281 L 217.65625 237.199219 C 215.25 238.296875 213.441406 242.167969 219.105469 241.578125 C 224.078125 242.324219 224.523438 250.394531 216.328125 250.335938 C 178.859375 255.21875 160.132812 277.84375 158.148438 316.324219 C 157.589844 328.035156 152.585938 330.222656 143.152344 322.921875 C 140.941406 321.226562 138.726562 324.195312 141.726562 326.390625 C 145.289062 329.425781 146.488281 338.160156 140.882812 336.164062 C 125.039062 331.632812 121.796875 349.46875 130.609375 357.726562 L 176.089844 396.304688 C 189.027344 407.152344 208.144531 398.890625 193.105469 377.773438 C 190.84375 373.550781 192 370.902344 196.472656 371.371094 C 200.261719 372.234375 201.796875 370.796875 200.179688 366.148438 C 197.863281 362.980469 198.589844 360.824219 202.03125 359.578125 C 217.894531 356.707031 230.414062 349.128906 241.617188 339.699219 C 241.65625 346.320312 244.238281 349.644531 252.230469 345.933594 C 252.929688 353.144531 255.953125 357.605469 266.042969 353.683594 L 279.449219 363.726562 C 282.816406 374.074219 289.636719 380.609375 301.761719 381.289062 L 311.300781 390.304688 L 309.972656 361.03125 C 305.738281 353.347656 298.300781 350.183594 288.300781 350.640625 L 275.328125 340.761719 C 277.214844 339.277344 275.753906 333.132812 274.511719 330.269531 C 270.707031 321.527344 263.984375 314.691406 260.179688 305.949219 L 259.914062 281.738281 C 265.171875 278.613281 267.671875 274.273438 267.914062 268.933594 Z M 267.914062 268.933594 " fill-opacity="1" fill-rule="evenodd"/><path fill="#ffec00" d="M 527.121094 269.660156 C 501.621094 283.640625 497 261.664062 503.128906 255.265625 L 551.113281 210.871094 C 571.96875 194.5625 589.53125 212.375 569.105469 232.46875 L 577.378906 237.929688 C 579.785156 239.027344 581.589844 242.894531 575.929688 242.304688 C 570.957031 243.050781 570.511719 251.121094 578.703125 251.0625 C 616.175781 255.945312 634.902344 278.574219 636.886719 317.050781 C 637.441406 328.765625 642.449219 330.949219 651.882812 323.648438 C 654.089844 321.957031 656.308594 324.921875 653.304688 327.117188 C 649.742188 330.15625 648.546875 338.886719 654.148438 336.890625 C 669.996094 332.359375 673.238281 350.199219 664.421875 358.453125 L 618.941406 397.03125 C 606.007812 407.878906 586.890625 399.617188 601.929688 378.5 C 604.191406 374.28125 603.035156 371.632812 598.5625 372.097656 C 594.773438 372.960938 593.238281 371.523438 594.855469 366.875 C 597.171875 363.707031 596.445312 361.554688 593 360.304688 C 577.140625 357.433594 564.621094 349.859375 553.417969 340.425781 C 553.363281 347.050781 550.796875 350.375 542.804688 346.660156 C 542.105469 353.875 539.082031 358.335938 528.992188 354.410156 L 515.585938 364.453125 C 512.214844 374.800781 505.398438 381.339844 493.273438 382.015625 L 483.734375 391.03125 L 485.0625 361.757812 C 489.296875 354.074219 496.734375 350.914062 506.734375 351.371094 L 519.707031 341.492188 C 517.820312 340.007812 519.277344 333.859375 520.523438 331 C 524.328125 322.257812 531.050781 315.417969 534.855469 306.675781 L 535.121094 282.464844 C 529.863281 279.34375 527.363281 275 527.121094 269.660156 Z M 527.121094 269.660156 " fill-opacity="1" fill-rule="evenodd"/><path stroke-linecap="round" transform="matrix(13.120945, 0, 0, 13.122522, 69.844798, -987.498338)" fill-opacity="1" fill="#ffffff" fill-rule="evenodd" stroke-linejoin="round" d="M 22.008207 96.843159 C 21.511327 94.69305 21.573549 92.481026 21.780756 89.953465 C 19.660458 91.344501 18.505339 94.261124 20.609263 96.755642 C 21.220166 97.550435 21.543182 97.616519 21.938245 97.472742 C 22.120146 97.40636 22.079062 97.107197 22.008207 96.843159 Z M 22.008207 96.843159 " stroke="#000000" stroke-width="0.366" stroke-opacity="1" stroke-miterlimit="4"/><path stroke-linecap="round" transform="matrix(13.120945, 0, 0, 13.122522, 69.844798, -987.498338)" fill-opacity="1" fill="#ffffff" fill-rule="evenodd" stroke-linejoin="round" d="M 27.705205 96.843159 C 28.202085 94.69305 28.139565 92.481026 27.932358 89.953465 C 30.052954 91.344501 31.208073 94.261124 29.103851 96.755642 C 28.493246 97.550435 28.17023 97.616519 27.775167 97.472742 C 27.592968 97.40636 27.634052 97.107197 27.705205 96.843159 Z M 27.705205 96.843159 " stroke="#000000" stroke-width="0.366" stroke-opacity="1" stroke-miterlimit="4"/><path stroke-linecap="round" transform="matrix(13.120945, 0, 0, 13.122522, 69.844798, -987.498338)" fill-opacity="1" fill="#ffffff" fill-rule="evenodd" stroke-linejoin="round" d="M 12.613043 99.908023 C 13.818475 98.818829 15.860474 97.715347 16.860486 97.670398 L 19.241876 97.670398 L 19.241876 100.076805 L 18.642286 100.634351 L 13.111411 100.499206 Z M 12.613043 99.908023 " stroke="#000000" stroke-width="0.366" stroke-opacity="1" stroke-miterlimit="4"/><path stroke-linecap="round" transform="matrix(13.120945, 0, 0, 13.122522, 69.844798, -987.498338)" fill-opacity="1" fill="#ffffff" fill-rule="evenodd" stroke-linejoin="round" d="M 19.140357 97.98266 C 18.439545 97.98266 17.738733 97.98266 17.037922 97.98266 C 15.940856 98.05172 15.144479 98.595871 14.470759 99.333808 " stroke="#000000" stroke-width="0.183" stroke-opacity="1" stroke-miterlimit="4"/><path stroke-linecap="round" transform="matrix(13.120945, 0, 0, 13.122522, 69.844798, -987.498338)" fill-opacity="1" fill="#f07c00" fill-rule="evenodd" stroke-linejoin="round" d="M 19.719702 91.752317 L 29.651937 91.720168 L 29.716541 92.945399 C 28.629598 92.708152 27.495021 92.644747 26.253268 92.975166 C 25.347631 92.643259 24.13565 92.731073 23.234776 92.945399 C 22.13265 92.717082 21.002539 92.729882 19.745603 92.914441 Z M 19.719702 91.752317 " stroke="#000000" stroke-width="0.366" stroke-opacity="1" stroke-miterlimit="4"/><path stroke-linecap="round" transform="matrix(13.120945, 0, 0, 13.122522, 69.844798, -987.498338)" fill-opacity="1" fill="#f07c00" fill-rule="evenodd" stroke-linejoin="round" d="M 24.649201 83.722527 C 24.721247 83.722527 24.7924 83.729671 24.863256 83.743662 C 24.933813 83.757652 25.002287 83.77849 25.068676 83.806173 C 25.135363 83.833559 25.198478 83.867494 25.258318 83.907383 C 25.318158 83.947569 25.373532 83.992816 25.424441 84.043718 C 25.475349 84.094621 25.520899 84.149988 25.560792 84.209821 C 25.600983 84.269951 25.634625 84.333059 25.662312 84.39944 C 25.689701 84.466119 25.710541 84.534585 25.724534 84.605134 C 25.738526 84.675683 25.745671 84.747125 25.745671 84.819162 C 25.745671 84.8912 25.738526 84.962344 25.724534 85.032893 C 25.710541 85.10374 25.689701 85.172205 25.662014 85.238587 C 25.634625 85.305266 25.600686 85.368373 25.560792 85.428206 C 25.520899 85.488039 25.475349 85.543406 25.424441 85.594309 C 25.373532 85.645211 25.318158 85.690755 25.258318 85.730644 C 25.198478 85.770532 25.135363 85.804467 25.068676 85.831853 C 25.002287 85.859537 24.933515 85.880375 24.862958 85.894365 C 24.7924 85.908356 24.721247 85.9155 24.649201 85.9155 C 24.577155 85.9155 24.506002 85.908356 24.435147 85.894365 C 24.36459 85.880375 24.296116 85.859537 24.229727 85.831853 C 24.163039 85.804467 24.099925 85.770532 24.040085 85.730644 C 23.980245 85.690755 23.92487 85.645211 23.873962 85.594309 C 23.823053 85.543406 23.777503 85.488039 23.73761 85.428206 C 23.697717 85.368373 23.663778 85.304968 23.636388 85.238587 C 23.608701 85.172205 23.587862 85.103442 23.573869 85.032893 C 23.559877 84.962344 23.552732 84.890902 23.552732 84.818865 C 23.552732 84.747125 23.559877 84.675683 23.573869 84.605134 C 23.587862 84.534585 23.608701 84.465822 23.636388 84.39944 C 23.663778 84.333059 23.697717 84.269654 23.73761 84.209821 C 23.777503 84.149988 23.823053 84.094621 23.873962 84.043718 C 23.92487 83.992816 23.980245 83.947271 24.040085 83.907383 C 24.099925 83.867494 24.163039 83.833559 24.229727 83.806173 C 24.296116 83.77849 24.36459 83.757652 24.435445 83.743662 C 24.506002 83.729671 24.577155 83.722527 24.649201 83.722527 Z M 24.649201 83.722527 " stroke="#000000" stroke-width="0.366" stroke-opacity="1" stroke-miterlimit="4"/><path stroke-linecap="round" transform="matrix(13.120945, 0, 0, 13.122522, 69.844798, -987.498338)" fill-opacity="1" fill="#ffffff" fill-rule="evenodd" stroke-linejoin="round" d="M 37.341813 99.908023 C 36.136679 98.818829 34.094381 97.715347 33.094667 97.670398 L 30.713277 97.670398 L 30.713277 100.076805 L 31.312569 100.634351 L 36.843742 100.499206 Z M 37.341813 99.908023 " stroke="#000000" stroke-width="0.366" stroke-opacity="1" stroke-miterlimit="4"/><path stroke-linecap="round" transform="matrix(13.120945, 0, 0, 13.122522, 69.844798, -987.498338)" fill-opacity="1" fill="#ffffff" fill-rule="evenodd" stroke-linejoin="round" d="M 30.814499 97.98266 C 31.51531 97.98266 32.21642 97.98266 32.917232 97.98266 C 34.013999 98.05172 34.810376 98.595871 35.484096 99.333808 " stroke="#000000" stroke-width="0.183" stroke-opacity="1" stroke-miterlimit="4"/><path stroke-linecap="round" transform="matrix(13.120945, 0, 0, 13.122522, 69.844798, -987.498338)" fill-opacity="1" fill="#ffffff" fill-rule="evenodd" stroke-linejoin="round" d="M 19.78758 97.433151 C 23.141593 96.96848 26.526865 97.004796 29.946076 97.57931 L 29.994603 100.307801 L 31.017835 101.014184 L 31.017835 107.445458 L 29.775487 109.589018 C 29.33815 110.017372 28.905278 110.078396 28.557254 109.369929 C 28.289314 109.013611 28.086573 107.874706 27.948435 105.959463 L 27.615296 108.933537 C 27.563494 109.420533 27.647449 109.635753 27.948435 109.711065 L 27.948435 115.679156 C 25.773656 117.010955 23.935886 116.679047 22.22375 115.727974 L 22.22375 109.369929 C 22.47085 109.29551 22.567606 108.984737 22.564629 108.517387 L 22.637866 106.422348 L 22.126398 106.446758 C 21.999573 107.819338 21.575931 109.012123 20.859638 110.027493 C 19.58216 108.693015 18.847707 107.305253 18.935234 105.837416 L 18.935234 100.892435 L 19.739054 100.35662 Z M 19.78758 97.433151 " stroke="#000000" stroke-width="0.366" stroke-opacity="1" stroke-miterlimit="4"/><path stroke-linecap="butt" transform="matrix(13.120945, 0, 0, 13.122522, 69.844798, -987.498338)" fill-opacity="1" fill="#000000" fill-rule="evenodd" stroke-linejoin="miter" d="M 16.116506 102.764515 L 19.836405 102.764515 L 20.759905 104.486864 L 18.475568 103.867997 C 17.609229 103.786434 16.843814 103.344089 16.116506 102.764515 Z M 16.116506 102.764515 " stroke="#000000" stroke-width="0.538" stroke-opacity="1" stroke-miterlimit="4"/><path stroke-linecap="round" transform="matrix(13.120945, 0, 0, 13.122522, 69.844798, -987.498338)" fill="none" stroke-linejoin="round" d="M 20.759905 104.486864 L 20.339834 106.25565 C 20.221345 106.785512 20.144834 106.958461 20.374964 107.422537 L 20.847432 108.34414 " stroke="#000000" stroke-width="0.183" stroke-opacity="1" stroke-miterlimit="4"/><path stroke-linecap="butt" transform="matrix(13.120945, 0, 0, 13.122522, 69.844798, -987.498338)" fill-opacity="1" fill="#000000" fill-rule="evenodd" stroke-linejoin="miter" d="M 22.683118 109.490487 C 24.85224 111.790029 25.440517 111.407516 27.010347 109.490487 Z M 22.683118 109.490487 " stroke="#000000" stroke-width="0.538" stroke-opacity="1" stroke-miterlimit="4"/><path stroke-linecap="round" transform="matrix(13.120945, 0, 0, 13.122522, 69.844798, -987.498338)" fill="none" stroke-linejoin="round" d="M 25.063317 111.072333 L 25.063317 113.701401 " stroke="#000000" stroke-width="0.183" stroke-opacity="1" stroke-miterlimit="4"/><path stroke-linecap="round" transform="matrix(13.120945, 0, 0, 13.122522, 69.844798, -987.498338)" fill="none" stroke-linejoin="round" d="M 23.581907 114.250612 C 24.448544 113.507912 25.510182 113.515652 26.760866 114.250612 " stroke="#000000" stroke-width="0.183" stroke-opacity="1" stroke-miterlimit="4"/><path stroke-linecap="butt" transform="matrix(13.120945, 0, 0, 13.122522, 69.844798, -987.498338)" fill-opacity="1" fill="#ff0000" fill-rule="evenodd" stroke-linejoin="miter" d="M 19.38061 103.188702 C 19.442533 103.188702 19.503862 103.194953 19.564595 103.20686 C 19.62503 103.219065 19.683977 103.236925 19.741138 103.260442 C 19.798596 103.284256 19.852779 103.313428 19.904283 103.347661 C 19.955787 103.382191 20.003123 103.421186 20.046887 103.464945 C 20.09065 103.508703 20.129948 103.556331 20.164185 103.607829 C 20.198719 103.659029 20.227597 103.713504 20.251414 103.770657 C 20.274933 103.827811 20.292796 103.886751 20.305002 103.947476 C 20.316911 104.008202 20.323163 104.069523 20.323163 104.131142 C 20.323163 104.193058 20.316911 104.254379 20.305002 104.315105 C 20.292796 104.375831 20.274933 104.434771 20.251414 104.491924 C 20.227597 104.549078 20.198719 104.603255 20.164185 104.654753 C 20.129948 104.706251 20.09065 104.753879 20.046887 104.797637 C 20.003123 104.841395 19.955787 104.880391 19.904283 104.914921 C 19.852779 104.949154 19.798596 104.978326 19.741138 105.001842 C 19.683977 105.025656 19.62503 105.043517 19.564595 105.055721 C 19.503862 105.067628 19.442533 105.073582 19.38061 105.073582 C 19.318686 105.073582 19.257357 105.067628 19.196624 105.055721 C 19.136189 105.043517 19.077242 105.025656 19.020081 105.001842 C 18.962921 104.978326 18.90844 104.949154 18.856936 104.914921 C 18.80573 104.880391 18.758096 104.841395 18.714332 104.797637 C 18.670569 104.753879 18.631271 104.706251 18.597034 104.654753 C 18.562797 104.603553 18.533622 104.549078 18.509805 104.491924 C 18.486286 104.434771 18.468423 104.375831 18.456217 104.315105 C 18.444308 104.254379 18.438056 104.193058 18.438056 104.131142 C 18.438056 104.069523 18.444308 104.008202 18.456217 103.947476 C 18.468423 103.886751 18.486286 103.827811 18.509805 103.770657 C 18.533622 103.713504 18.562797 103.659029 18.597034 103.607531 C 18.631271 103.556331 18.670569 103.508703 18.714332 103.464945 C 18.758096 103.421186 18.80573 103.382191 18.856936 103.347661 C 18.90844 103.313428 18.962921 103.284256 19.020081 103.260442 C 19.077242 103.236925 19.136189 103.219065 19.196624 103.20686 C 19.257357 103.194953 19.318686 103.188702 19.38061 103.188702 Z M 19.38061 103.188702 " stroke="#1b1918" stroke-width="0.538" stroke-opacity="1" stroke-miterlimit="4"/><path stroke-linecap="butt" transform="matrix(13.120945, 0, 0, 13.122522, 69.844798, -987.498338)" fill-opacity="1" fill="#000000" fill-rule="evenodd" stroke-linejoin="miter" d="M 33.793991 102.764515 L 30.074091 102.764515 L 29.150294 104.486864 L 31.434929 103.867997 C 32.30097 103.786434 33.066683 103.344089 33.793991 102.764515 Z M 33.793991 102.764515 " stroke="#000000" stroke-width="0.538" stroke-opacity="1" stroke-miterlimit="4"/><path stroke-linecap="round" transform="matrix(13.120945, 0, 0, 13.122522, 69.844798, -987.498338)" fill="none" stroke-linejoin="round" d="M 29.150294 104.486864 L 29.570662 106.25565 C 29.688853 106.785512 29.765663 106.958461 29.535532 107.422537 L 29.063065 108.34414 " stroke="#000000" stroke-width="0.183" stroke-opacity="1" stroke-miterlimit="4"/><path stroke-linecap="butt" transform="matrix(13.120945, 0, 0, 13.122522, 69.844798, -987.498338)" fill-opacity="1" fill="#ff0000" fill-rule="evenodd" stroke-linejoin="miter" d="M 30.529887 103.188702 C 30.467963 103.188702 30.406635 103.194953 30.345902 103.20686 C 30.285169 103.219065 30.226222 103.236925 30.169061 103.260442 C 30.111901 103.284256 30.057717 103.313428 30.006213 103.347661 C 29.954709 103.382191 29.907076 103.421186 29.863312 103.464945 C 29.819549 103.508703 29.780548 103.556331 29.746014 103.607829 C 29.711777 103.659029 29.682601 103.713504 29.659082 103.770657 C 29.635265 103.827811 29.617403 103.886751 29.605494 103.947476 C 29.593288 104.008202 29.587334 104.069523 29.587334 104.131142 C 29.587334 104.193058 29.593288 104.254379 29.605494 104.315105 C 29.617403 104.375831 29.635265 104.434771 29.659082 104.491924 C 29.682601 104.549078 29.711777 104.603553 29.746014 104.654753 C 29.780548 104.706251 29.819549 104.753879 29.863312 104.797637 C 29.907076 104.841395 29.954709 104.880391 30.006213 104.914921 C 30.057717 104.949154 30.111901 104.978326 30.169061 105.001842 C 30.226222 105.025656 30.285169 105.043517 30.345902 105.055721 C 30.406635 105.067628 30.467963 105.073582 30.529589 105.073582 C 30.591513 105.073582 30.652842 105.067628 30.713575 105.055721 C 30.774308 105.043517 30.833255 105.025656 30.890415 105.001842 C 30.947576 104.978326 31.001759 104.949154 31.053263 104.914921 C 31.104767 104.880391 31.152401 104.841395 31.196164 104.797637 C 31.239928 104.753879 31.278928 104.706251 31.313462 104.654753 C 31.347699 104.603553 31.376875 104.549078 31.400394 104.491924 C 31.424211 104.434771 31.442074 104.375831 31.453982 104.315105 C 31.466188 104.254379 31.472142 104.193058 31.472142 104.131142 C 31.472142 104.069523 31.466188 104.008202 31.453982 103.947476 C 31.442074 103.886751 31.424211 103.827811 31.400394 103.770657 C 31.376875 103.713504 31.347699 103.659029 31.313462 103.607829 C 31.278928 103.556331 31.239928 103.508703 31.196164 103.464945 C 31.152401 103.421186 31.104767 103.382191 31.053263 103.347661 C 31.001759 103.313428 30.947576 103.284256 30.890415 103.260442 C 30.833255 103.236925 30.774308 103.219065 30.713575 103.20686 C 30.652842 103.194953 30.591513 103.189 30.529887 103.188702 Z M 30.529887 103.188702 " stroke="#1b1918" stroke-width="0.538" stroke-opacity="1" stroke-miterlimit="4"/><path fill="#ffec00" d="M 383.488281 549.613281 L 407.277344 549.613281 L 407.515625 653.433594 C 406.890625 668.234375 405.765625 678.335938 398.300781 685.636719 C 391.027344 679.097656 388.308594 667.679688 387.078125 654.660156 Z M 383.488281 549.613281 " fill-opacity="1" fill-rule="evenodd"/><path fill="#ffec00" d="M 342.734375 463.667969 L 349.710938 498.683594 L 291.375 540.578125 C 288.261719 542.746094 282.792969 545.152344 274.152344 548.019531 L 239.832031 558.800781 C 240.6875 562.1875 240.171875 564.476562 236.523438 564.257812 C 238.441406 569.167969 233.875 571.984375 230.6875 568.148438 C 228.558594 565.4375 223.652344 568.597656 225.085938 572.269531 C 227.4375 579.453125 222.625 583.042969 216.164062 579.984375 C 212.589844 578.414062 208.769531 573.089844 207.597656 569.402344 C 204.328125 561.972656 210.332031 557.640625 215.933594 560.140625 C 219.546875 562.820312 222.796875 561.496094 221.914062 556.664062 C 220.421875 552.484375 223.257812 549.324219 227.601562 553.046875 C 228.28125 550.699219 230.777344 549.6875 233.359375 551.011719 L 256.632812 520.492188 C 262.984375 513.222656 264.664062 510.226562 272.480469 505.476562 L 334.707031 461.300781 C 336.136719 460.230469 337.632812 460.230469 338.738281 460.65625 Z M 342.734375 463.667969 " fill-opacity="1" fill-rule="evenodd"/><path fill="#ffec00" d="M 452.648438 463.667969 L 445.675781 498.683594 L 504.007812 540.578125 C 507.121094 542.746094 512.589844 545.152344 521.234375 548.019531 L 555.554688 558.800781 C 554.695312 562.1875 555.210938 564.476562 558.859375 564.257812 C 556.941406 569.167969 561.507812 571.984375 564.695312 568.148438 C 566.828125 565.4375 571.734375 568.597656 570.300781 572.269531 C 567.945312 579.453125 572.757812 583.042969 579.21875 579.984375 C 582.792969 578.414062 586.613281 573.089844 587.785156 569.402344 C 591.054688 561.972656 585.050781 557.640625 579.453125 560.140625 C 575.839844 562.820312 572.589844 561.496094 573.46875 556.664062 C 574.964844 552.484375 572.125 549.324219 567.785156 553.046875 C 567.101562 550.699219 564.605469 549.6875 562.027344 551.011719 L 538.753906 520.492188 C 532.398438 513.222656 530.722656 510.226562 522.90625 505.476562 L 460.679688 461.300781 C 459.25 460.230469 457.753906 460.230469 456.648438 460.65625 Z M 452.648438 463.667969 " fill-opacity="1" fill-rule="evenodd"/></svg>