<svg width="210mm" height="297mm" viewBox="0 0 210 297" version="1.1" id="svg1360" inkscape:version="1.2.1 (9c6d41e410, 2022-07-14)" sodipodi:docname="Logo_DuBodi (3).svg" xmlns:inkscape="http://www.inkscape.org/namespaces/inkscape" xmlns:sodipodi="http://sodipodi.sourceforge.net/DTD/sodipodi-0.dtd" xmlns="http://www.w3.org/2000/svg" xmlns:svg="http://www.w3.org/2000/svg">
  <sodipodi:namedview id="namedview1362" pagecolor="#505050" bordercolor="#eeeeee" borderopacity="1" inkscape:showpageshadow="0" inkscape:pageopacity="0" inkscape:pagecheckerboard="0" inkscape:deskcolor="#505050" inkscape:document-units="mm" showgrid="false" inkscape:zoom="1.0444209" inkscape:cx="255.64405" inkscape:cy="662.56811" inkscape:window-width="1920" inkscape:window-height="1009" inkscape:window-x="-8" inkscape:window-y="-8" inkscape:window-maximized="1" inkscape:current-layer="g3717" showguides="true"></sodipodi:namedview>
  <defs id="defs1357">
    <filter style="color-interpolation-filters:sRGB" inkscape:label="Color Shift" id="filter665" y="-0.16990762" height="1.4155611" x="-inf" width="inf">
      <feColorMatrix type="hueRotate" values="312" result="color1" id="feColorMatrix661"></feColorMatrix>
      <feColorMatrix type="saturate" values="0" result="color2" id="feColorMatrix663"></feColorMatrix>
    </filter>
    <filter style="color-interpolation-filters:sRGB" inkscape:label="Color Shift" id="filter3230" y="-0.16990755" height="1.4155608">
      <feColorMatrix type="hueRotate" values="312" result="color1" id="feColorMatrix3226"></feColorMatrix>
      <feColorMatrix type="saturate" values="0" result="color2" id="feColorMatrix3228"></feColorMatrix>
    </filter>
    <filter style="color-interpolation-filters:sRGB" inkscape:label="Color Shift" id="filter3236" y="-0.16990755" height="1.4155608">
      <feColorMatrix type="hueRotate" values="312" result="color1" id="feColorMatrix3232"></feColorMatrix>
      <feColorMatrix type="saturate" values="0" result="color2" id="feColorMatrix3234"></feColorMatrix>
    </filter>
    <filter style="color-interpolation-filters:sRGB" inkscape:label="Color Shift" id="filter3242" y="-0.16990755" height="1.4155608">
      <feColorMatrix type="hueRotate" values="312" result="color1" id="feColorMatrix3238"></feColorMatrix>
      <feColorMatrix type="saturate" values="0" result="color2" id="feColorMatrix3240"></feColorMatrix>
    </filter>
    <filter style="color-interpolation-filters:sRGB" inkscape:label="Color Shift" id="filter3248" y="-0.16990755" height="1.4155608">
      <feColorMatrix type="hueRotate" values="312" result="color1" id="feColorMatrix3244"></feColorMatrix>
      <feColorMatrix type="saturate" values="0" result="color2" id="feColorMatrix3246"></feColorMatrix>
    </filter>
    <filter style="color-interpolation-filters:sRGB" inkscape:label="Color Shift" id="filter3254" y="-0.16990755" height="1.4155608">
      <feColorMatrix type="hueRotate" values="312" result="color1" id="feColorMatrix3250"></feColorMatrix>
      <feColorMatrix type="saturate" values="0" result="color2" id="feColorMatrix3252"></feColorMatrix>
    </filter>
    <filter style="color-interpolation-filters:sRGB" inkscape:label="Color Shift" id="filter3260" y="-0.16990755" height="1.4155608">
      <feColorMatrix type="hueRotate" values="312" result="color1" id="feColorMatrix3256"></feColorMatrix>
      <feColorMatrix type="saturate" values="0" result="color2" id="feColorMatrix3258"></feColorMatrix>
    </filter>
    <filter style="color-interpolation-filters:sRGB" inkscape:label="Color Shift" id="filter3266" y="-0.16990755" height="1.4155608">
      <feColorMatrix type="hueRotate" values="312" result="color1" id="feColorMatrix3262"></feColorMatrix>
      <feColorMatrix type="saturate" values="0" result="color2" id="feColorMatrix3264"></feColorMatrix>
    </filter>
    <filter style="color-interpolation-filters:sRGB" inkscape:label="Color Shift" id="filter3272" y="-0.16990755" height="1.4155608">
      <feColorMatrix type="hueRotate" values="312" result="color1" id="feColorMatrix3268"></feColorMatrix>
      <feColorMatrix type="saturate" values="0" result="color2" id="feColorMatrix3270"></feColorMatrix>
    </filter>
    <filter style="color-interpolation-filters:sRGB" inkscape:label="Color Shift" id="filter3278" y="-0.16990755" height="1.4155608">
      <feColorMatrix type="hueRotate" values="312" result="color1" id="feColorMatrix3274"></feColorMatrix>
      <feColorMatrix type="saturate" values="0" result="color2" id="feColorMatrix3276"></feColorMatrix>
    </filter>
    <filter style="color-interpolation-filters:sRGB" inkscape:label="Color Shift" id="filter3284" y="-0.16990755" height="1.4155608">
      <feColorMatrix type="hueRotate" values="312" result="color1" id="feColorMatrix3280"></feColorMatrix>
      <feColorMatrix type="saturate" values="0" result="color2" id="feColorMatrix3282"></feColorMatrix>
    </filter>
    <filter style="color-interpolation-filters:sRGB" inkscape:label="Color Shift" id="filter3290" y="-0.16990755" height="1.4155608">
      <feColorMatrix type="hueRotate" values="312" result="color1" id="feColorMatrix3286"></feColorMatrix>
      <feColorMatrix type="saturate" values="0" result="color2" id="feColorMatrix3288"></feColorMatrix>
    </filter>
    <filter style="color-interpolation-filters:sRGB" inkscape:label="Color Shift" id="filter3296" y="-0.16990755" height="1.4155608">
      <feColorMatrix type="hueRotate" values="312" result="color1" id="feColorMatrix3292"></feColorMatrix>
      <feColorMatrix type="saturate" values="0" result="color2" id="feColorMatrix3294"></feColorMatrix>
    </filter>
    <filter style="color-interpolation-filters:sRGB" inkscape:label="Color Shift" id="filter3302" y="-0.16990755" height="1.4155608">
      <feColorMatrix type="hueRotate" values="312" result="color1" id="feColorMatrix3298"></feColorMatrix>
      <feColorMatrix type="saturate" values="0" result="color2" id="feColorMatrix3300"></feColorMatrix>
    </filter>
    <filter style="color-interpolation-filters:sRGB" inkscape:label="Color Shift" id="filter3308" y="-0.16990755" height="1.4155608">
      <feColorMatrix type="hueRotate" values="312" result="color1" id="feColorMatrix3304"></feColorMatrix>
      <feColorMatrix type="saturate" values="0" result="color2" id="feColorMatrix3306"></feColorMatrix>
    </filter>
    <filter style="color-interpolation-filters:sRGB" inkscape:label="Color Shift" id="filter3314" y="-0.16990755" height="1.4155608">
      <feColorMatrix type="hueRotate" values="312" result="color1" id="feColorMatrix3310"></feColorMatrix>
      <feColorMatrix type="saturate" values="0" result="color2" id="feColorMatrix3312"></feColorMatrix>
    </filter>
    <filter style="color-interpolation-filters:sRGB" inkscape:label="Color Shift" id="filter3320" y="-0.16990755" height="1.4155608">
      <feColorMatrix type="hueRotate" values="312" result="color1" id="feColorMatrix3316"></feColorMatrix>
      <feColorMatrix type="saturate" values="0" result="color2" id="feColorMatrix3318"></feColorMatrix>
    </filter>
    <filter style="color-interpolation-filters:sRGB" inkscape:label="Color Shift" id="filter3326" y="-0.16990755" height="1.4155608">
      <feColorMatrix type="hueRotate" values="312" result="color1" id="feColorMatrix3322"></feColorMatrix>
      <feColorMatrix type="saturate" values="0" result="color2" id="feColorMatrix3324"></feColorMatrix>
    </filter>
    <filter style="color-interpolation-filters:sRGB" inkscape:label="Color Shift" id="filter3332" y="-0.16990755" height="1.4155608">
      <feColorMatrix type="hueRotate" values="312" result="color1" id="feColorMatrix3328"></feColorMatrix>
      <feColorMatrix type="saturate" values="0" result="color2" id="feColorMatrix3330"></feColorMatrix>
    </filter>
    <filter style="color-interpolation-filters:sRGB" inkscape:label="Color Shift" id="filter3338" y="-0.16990755" height="1.4155608">
      <feColorMatrix type="hueRotate" values="312" result="color1" id="feColorMatrix3334"></feColorMatrix>
      <feColorMatrix type="saturate" values="0" result="color2" id="feColorMatrix3336"></feColorMatrix>
    </filter>
    <filter style="color-interpolation-filters:sRGB" inkscape:label="Color Shift" id="filter3344" y="-0.16990755" height="1.4155608">
      <feColorMatrix type="hueRotate" values="312" result="color1" id="feColorMatrix3340"></feColorMatrix>
      <feColorMatrix type="saturate" values="0" result="color2" id="feColorMatrix3342"></feColorMatrix>
    </filter>
    <filter style="color-interpolation-filters:sRGB" inkscape:label="Color Shift" id="filter3350" y="-0.16990755" height="1.4155608">
      <feColorMatrix type="hueRotate" values="312" result="color1" id="feColorMatrix3346"></feColorMatrix>
      <feColorMatrix type="saturate" values="0" result="color2" id="feColorMatrix3348"></feColorMatrix>
    </filter>
    <filter style="color-interpolation-filters:sRGB" inkscape:label="Color Shift" id="filter3356" y="-0.16990755" height="1.4155608">
      <feColorMatrix type="hueRotate" values="312" result="color1" id="feColorMatrix3352"></feColorMatrix>
      <feColorMatrix type="saturate" values="0" result="color2" id="feColorMatrix3354"></feColorMatrix>
    </filter>
    <filter style="color-interpolation-filters:sRGB" inkscape:label="Color Shift" id="filter3362" y="-0.16990755" height="1.4155608">
      <feColorMatrix type="hueRotate" values="312" result="color1" id="feColorMatrix3358"></feColorMatrix>
      <feColorMatrix type="saturate" values="0" result="color2" id="feColorMatrix3360"></feColorMatrix>
    </filter>
    <filter style="color-interpolation-filters:sRGB" inkscape:label="Color Shift" id="filter3368" y="-0.16990755" height="1.4155608">
      <feColorMatrix type="hueRotate" values="312" result="color1" id="feColorMatrix3364"></feColorMatrix>
      <feColorMatrix type="saturate" values="0" result="color2" id="feColorMatrix3366"></feColorMatrix>
    </filter>
    <filter style="color-interpolation-filters:sRGB" inkscape:label="Color Shift" id="filter3374" y="-0.16990755" height="1.4155608">
      <feColorMatrix type="hueRotate" values="312" result="color1" id="feColorMatrix3370"></feColorMatrix>
      <feColorMatrix type="saturate" values="0" result="color2" id="feColorMatrix3372"></feColorMatrix>
    </filter>
    <filter style="color-interpolation-filters:sRGB" inkscape:label="Color Shift" id="filter3380" y="-0.16990755" height="1.4155608">
      <feColorMatrix type="hueRotate" values="312" result="color1" id="feColorMatrix3376"></feColorMatrix>
      <feColorMatrix type="saturate" values="0" result="color2" id="feColorMatrix3378"></feColorMatrix>
    </filter>
    <filter style="color-interpolation-filters:sRGB" inkscape:label="Color Shift" id="filter3386" y="-0.16990755" height="1.4155608">
      <feColorMatrix type="hueRotate" values="312" result="color1" id="feColorMatrix3382"></feColorMatrix>
      <feColorMatrix type="saturate" values="0" result="color2" id="feColorMatrix3384"></feColorMatrix>
    </filter>
    <filter style="color-interpolation-filters:sRGB" inkscape:label="Color Shift" id="filter3392" y="-0.16990755" height="1.4155608">
      <feColorMatrix type="hueRotate" values="312" result="color1" id="feColorMatrix3388"></feColorMatrix>
      <feColorMatrix type="saturate" values="0" result="color2" id="feColorMatrix3390"></feColorMatrix>
    </filter>
    <filter style="color-interpolation-filters:sRGB" inkscape:label="Color Shift" id="filter3398" y="-0.16990755" height="1.4155608">
      <feColorMatrix type="hueRotate" values="312" result="color1" id="feColorMatrix3394"></feColorMatrix>
      <feColorMatrix type="saturate" values="0" result="color2" id="feColorMatrix3396"></feColorMatrix>
    </filter>
    <filter style="color-interpolation-filters:sRGB" inkscape:label="Color Shift" id="filter3404" y="-0.16990755" height="1.4155608">
      <feColorMatrix type="hueRotate" values="312" result="color1" id="feColorMatrix3400"></feColorMatrix>
      <feColorMatrix type="saturate" values="0" result="color2" id="feColorMatrix3402"></feColorMatrix>
    </filter>
    <filter style="color-interpolation-filters:sRGB" inkscape:label="Color Shift" id="filter3410" y="-0.16990755" height="1.4155608">
      <feColorMatrix type="hueRotate" values="312" result="color1" id="feColorMatrix3406"></feColorMatrix>
      <feColorMatrix type="saturate" values="0" result="color2" id="feColorMatrix3408"></feColorMatrix>
    </filter>
    <filter style="color-interpolation-filters:sRGB" inkscape:label="Color Shift" id="filter3416" y="-0.16990755" height="1.4155608">
      <feColorMatrix type="hueRotate" values="312" result="color1" id="feColorMatrix3412"></feColorMatrix>
      <feColorMatrix type="saturate" values="0" result="color2" id="feColorMatrix3414"></feColorMatrix>
    </filter>
    <filter style="color-interpolation-filters:sRGB" inkscape:label="Color Shift" id="filter3422" y="-0.16990755" height="1.4155608">
      <feColorMatrix type="hueRotate" values="312" result="color1" id="feColorMatrix3418"></feColorMatrix>
      <feColorMatrix type="saturate" values="0" result="color2" id="feColorMatrix3420"></feColorMatrix>
    </filter>
  </defs>
  <g inkscape:label="Camada 1" inkscape:groupmode="layer" id="layer1">
    <g id="g3717" transform="matrix(1.8546346,0,0,1.8546346,-402.00976,-149.55576)">
      <path transform="matrix(0.63941585,0,0,0.63941585,225.45374,91.51262)" d="M 25.160481,77.252816 A 28.784402,28.784402 0 0 1 53.944871,106.03722 28.784402,28.784402 0 1 1 25.160481,77.252816 Z" style="fill:#e30016;fill-rule:evenodd;stroke-width:0.949742" id="path197" inkscape:connector-curvature="0" data-index="0"></path>
      <path transform="matrix(0.63941585,0,0,0.63941585,225.45374,91.51262)" d="M 25.160481,80.400546 A 25.636672,25.636672 0 0 1 50.797151,106.03722 25.636672,25.636672 0 1 1 25.160481,80.400546 Z" style="fill:#ffffff;fill-rule:evenodd;stroke-width:0.949742" id="path199" inkscape:connector-curvature="0" data-index="1"></path>
      <path transform="matrix(0.63941585,0,0,0.63941585,225.45374,91.51262)" d="m 25.160481,81.196905 a 24.840313,24.840313 0 0 1 24.8403,24.840315 24.840313,24.840313 0 1 1 -24.8403,-24.840315 z" style="fill:#000000;fill-rule:evenodd;stroke-width:0.949742" id="path201" inkscape:connector-curvature="0" data-index="2"></path>
      <path transform="matrix(0.63941585,0,0,0.63941585,225.45374,91.51262)" d="m 24.324041,85.866502 c -0.37192,2.422602 -0.37847,3.462095 -0.0387,5.87102 l 0.8731,-0.0029 c 0.29575,-1.657016 0.36897,-3.587556 -0.023,-5.932564 z" style="fill:#ffec00;fill-rule:evenodd;stroke-width:0.949742" id="path203" inkscape:connector-curvature="0" data-index="3"></path>
      <path transform="matrix(0.63941585,0,0,0.63941585,225.45374,91.51262)" d="m 23.818871,92.83267 v 7.49612 l 1.969,-0.25149 v -7.244915 z" style="fill:#ffec00;fill-rule:evenodd;stroke-width:0.949742" id="path205" inkscape:connector-curvature="0" data-index="4"></path>
      <path transform="matrix(0.63941585,0,0,0.63941585,225.45374,91.51262)" d="m 15.095581,95.746099 c 1.94355,1.065325 2.29543,-0.609261 1.82863,-1.097143 l -3.65707,-3.382791 c -1.58958,-1.242737 -2.92815,0.114539 -1.37143,1.645713 l -0.63044,0.415987 c -0.18349,0.08367 -0.32111,0.378567 0.11046,0.33374 0.37904,0.0568 0.41304,0.671752 -0.21151,0.667384 -2.85587,0.372109 -4.28315,2.096365 -4.43425,5.028503 -0.0425,0.892668 -0.42387,1.059158 -1.14283,0.502889 -0.16848,-0.129165 -0.33753,0.09706 -0.10865,0.264219 0.27154,0.23145 0.3629,0.89694 -0.0644,0.74488 -1.2075,-0.34532 -1.45463,1.01404 -0.78287,1.64306 l 3.46627,2.93992 c 0.98583,0.82656 2.44293,0.19698 1.29668,-1.41217 -0.17247,-0.32168 -0.0841,-0.5235 0.25672,-0.48788 0.28872,0.0657 0.40563,-0.0437 0.28245,-0.39794 -0.17656,-0.24152 -0.12128,-0.40564 0.14123,-0.50071 1.20883,-0.21872 2.16304,-0.79617 3.01695,-1.51493 0.003,0.50469 0.19964,0.75808 0.8088,0.47506 0.0534,0.54971 0.28378,0.88962 1.05269,0.59055 l 1.02174,0.76549 c 0.25681,0.78838 0.77641,1.28662 1.70051,1.33828 l 0.72693,0.68695 -0.10105,-2.23075 c -0.32282,-0.58542 -0.88953,-0.82656 -1.6517,-0.79161 l -0.98877,-0.75286 c 0.14369,-0.11312 0.0325,-0.58143 -0.0623,-0.7995 -0.28986,-0.66624 -0.80225,-1.187268 -1.09221,-1.853512 l -0.0203,-1.845065 c 0.40079,-0.237909 0.59131,-0.568705 0.60973,-0.975764 z" style="fill:#ffec00;fill-rule:evenodd;stroke-width:0.949742" id="path207" inkscape:connector-curvature="0" data-index="5"></path>
      <path transform="matrix(0.63941585,0,0,0.63941585,225.45374,91.51262)" d="m 15.095581,95.746099 c 1.94355,1.065325 2.29543,-0.609261 1.82863,-1.097143 l -3.65707,-3.382791 c -1.58958,-1.242737 -2.92815,0.114539 -1.37143,1.645713 l -0.63044,0.415987 c -0.18349,0.08367 -0.32111,0.378567 0.11046,0.33374 0.37904,0.0568 0.41304,0.671752 -0.21151,0.667384 -2.85587,0.372109 -4.28315,2.096365 -4.43425,5.028503 -0.0425,0.892668 -0.42387,1.059158 -1.14283,0.502889 -0.16848,-0.129165 -0.33753,0.09706 -0.10865,0.264219 0.27154,0.23145 0.3629,0.89694 -0.0644,0.74488 -1.2075,-0.34532 -1.45463,1.01404 -0.78287,1.64306 l 3.46627,2.93992 c 0.98583,0.82656 2.44293,0.19698 1.29668,-1.41217 -0.17247,-0.32168 -0.0841,-0.5235 0.25672,-0.48788 0.28872,0.0657 0.40563,-0.0437 0.28245,-0.39794 -0.17656,-0.24152 -0.12128,-0.40564 0.14123,-0.50071 1.20883,-0.21872 2.16304,-0.79617 3.01695,-1.51493 0.003,0.50469 0.19964,0.75808 0.8088,0.47506 0.0534,0.54971 0.28378,0.88962 1.05269,0.59055 l 1.02174,0.76549 c 0.25681,0.78838 0.77641,1.28662 1.70051,1.33828 l 0.72693,0.68695 -0.10105,-2.23075 c -0.32282,-0.58542 -0.88953,-0.82656 -1.6517,-0.79161 l -0.98877,-0.75286 c 0.14369,-0.11312 0.0325,-0.58143 -0.0623,-0.7995 -0.28986,-0.66624 -0.80225,-1.187268 -1.09221,-1.853512 l -0.0203,-1.845065 c 0.40079,-0.237909 0.59131,-0.568705 0.60973,-0.975764 z" style="fill:#ffffff;fill-opacity:0;fill-rule:evenodd;stroke-width:0.949742" id="path209" inkscape:connector-curvature="0" data-index="6"></path>
      <path transform="matrix(0.63941585,0,0,0.63941585,225.45374,91.51262)" d="m 34.850791,95.801564 c -1.94346,1.065326 -2.29544,-0.60926 -1.82854,-1.097048 l 3.65707,-3.382886 c 1.58959,-1.242738 2.92815,0.114633 1.37143,1.645714 l 0.63045,0.416081 c 0.18349,0.08367 0.32101,0.378473 -0.11047,0.333645 -0.37904,0.05689 -0.41304,0.671752 0.21142,0.667383 2.85597,0.372109 4.28324,2.096461 4.43425,5.028505 0.0425,0.892662 0.42396,1.059252 1.14292,0.502889 0.16848,-0.129071 0.33744,0.09706 0.10855,0.264313 -0.27144,0.23145 -0.3628,0.89694 0.0644,0.74479 1.20761,-0.34533 1.45472,1.01404 0.78297,1.64305 l -3.46627,2.94002 c -0.98584,0.82647 -2.44293,0.19688 -1.29668,-1.41226 0.17247,-0.32159 0.0842,-0.5235 -0.25672,-0.48779 -0.28872,0.0656 -0.40573,-0.0438 -0.28246,-0.39804 0.17657,-0.24142 0.12129,-0.40554 -0.14122,-0.5007 -1.20883,-0.21873 -2.16304,-0.79617 -3.01695,-1.51484 -0.004,0.5046 -0.19964,0.75808 -0.80881,0.47496 -0.0533,0.54972 -0.28378,0.88963 -1.05268,0.59055 l -1.02174,0.7655 c -0.25681,0.78847 -0.77641,1.28671 -1.7006,1.33828 l -0.72694,0.68704 0.10115,-2.23085 c 0.32282,-0.58542 0.88953,-0.82646 1.6517,-0.79161 l 0.98877,-0.75276 c -0.14369,-0.11312 -0.0326,-0.58153 0.0623,-0.79959 0.28987,-0.66615 0.80226,-1.187274 1.09211,-1.853518 l 0.0204,-1.844968 c -0.40071,-0.238006 -0.59122,-0.568801 -0.60974,-0.97586 z" style="fill:#ffec00;fill-rule:evenodd;stroke-width:0.949742" id="path211" inkscape:connector-curvature="0" data-index="7"></path>
      <path transform="matrix(0.63941585,0,0,0.63941585,225.45374,91.51262)" d="m 34.850791,95.801564 c -1.94346,1.065326 -2.29544,-0.60926 -1.82854,-1.097048 l 3.65707,-3.382886 c 1.58959,-1.242738 2.92815,0.114633 1.37143,1.645714 l 0.63045,0.416081 c 0.18349,0.08367 0.32101,0.378473 -0.11047,0.333645 -0.37904,0.05689 -0.41304,0.671752 0.21142,0.667383 2.85597,0.372109 4.28324,2.096461 4.43425,5.028505 0.0425,0.892662 0.42396,1.059252 1.14292,0.502889 0.16848,-0.129071 0.33744,0.09706 0.10855,0.264313 -0.27144,0.23145 -0.3628,0.89694 0.0644,0.74479 1.20761,-0.34533 1.45472,1.01404 0.78297,1.64305 l -3.46627,2.94002 c -0.98584,0.82647 -2.44293,0.19688 -1.29668,-1.41226 0.17247,-0.32159 0.0842,-0.5235 -0.25672,-0.48779 -0.28872,0.0656 -0.40573,-0.0438 -0.28246,-0.39804 0.17657,-0.24142 0.12129,-0.40554 -0.14122,-0.5007 -1.20883,-0.21873 -2.16304,-0.79617 -3.01695,-1.51484 -0.004,0.5046 -0.19964,0.75808 -0.80881,0.47496 -0.0533,0.54972 -0.28378,0.88963 -1.05268,0.59055 l -1.02174,0.7655 c -0.25681,0.78847 -0.77641,1.28671 -1.7006,1.33828 l -0.72694,0.68704 0.10115,-2.23085 c 0.32282,-0.58542 0.88953,-0.82646 1.6517,-0.79161 l 0.98877,-0.75276 c -0.14369,-0.11312 -0.0326,-0.58153 0.0623,-0.79959 0.28987,-0.66615 0.80226,-1.187274 1.09211,-1.853518 l 0.0204,-1.844968 c -0.40071,-0.238006 -0.59122,-0.568801 -0.60974,-0.97586 z" style="fill:#ffffff;fill-opacity:0;fill-rule:evenodd;stroke-width:0.949742" id="path213" inkscape:connector-curvature="0" data-index="8"></path>
      <path transform="matrix(0.63941585,0,0,0.63941585,225.45374,91.51262)" d="m 22.008181,96.843241 c -0.497,-2.150122 -0.4346,-4.362261 -0.22736,-6.889714 -2.1204,1.390992 -3.27547,4.307555 -1.17161,6.802242 0.61088,0.794744 0.93389,0.860752 1.32897,0.716961 0.18198,-0.06629 0.14095,-0.365556 0.07,-0.629489 z" style="fill:#ffffff;fill-rule:evenodd;stroke:#000000;stroke-width:0.365651;stroke-linecap:round;stroke-linejoin:round;stroke-dasharray:none" id="path215" inkscape:connector-curvature="0" data-index="9"></path>
      <path transform="matrix(0.63941585,0,0,0.63941585,225.45374,91.51262)" d="m 27.705121,96.843241 c 0.49691,-2.150122 0.4345,-4.362261 0.22727,-6.889714 2.12049,1.390992 3.27556,4.307555 1.1716,6.802242 -0.61078,0.794744 -0.93388,0.860752 -1.32897,0.716961 -0.18198,-0.06629 -0.14095,-0.365556 -0.0699,-0.629489 z" style="fill:#ffffff;fill-rule:evenodd;stroke:#000000;stroke-width:0.365651;stroke-linecap:round;stroke-linejoin:round;stroke-dasharray:none" id="path217" inkscape:connector-curvature="0" data-index="10"></path>
      <path transform="matrix(0.63941585,0,0,0.63941585,225.45374,91.51262)" d="m 12.613051,99.908058 c 1.20541,-1.089259 3.24745,-2.192859 4.24744,-2.237782 h 2.38129 v 2.406644 l -0.59948,0.55731 -5.53101,-0.13505 z" style="fill:#ffffff;fill-rule:evenodd;stroke:#000000;stroke-width:0.365651;stroke-linecap:round;stroke-linejoin:round;stroke-dasharray:none" id="path219" inkscape:connector-curvature="0" data-index="11"></path>
      <path transform="matrix(0.63941585,0,0,0.63941585,225.45374,91.51262)" d="m 19.140441,97.982741 c -0.70082,0 -1.40173,0 -2.10264,0 -1.09685,0.06905 -1.89321,0.613153 -2.56705,1.351103" style="fill:#ffffff;fill-rule:evenodd;stroke:#000000;stroke-width:0.182825;stroke-linecap:round;stroke-linejoin:round;stroke-dasharray:none" id="path221" inkscape:connector-curvature="0" data-index="12"></path>
      <path transform="matrix(0.63941585,0,0,0.63941585,225.45374,91.51262)" d="m 19.719781,91.752338 9.93221,-0.03229 0.0645,1.225451 c -1.08698,-0.237434 -2.22135,-0.300782 -3.46324,0.02954 -0.90557,-0.331745 -2.11763,-0.244084 -3.01856,-0.02954 -1.10208,-0.228412 -2.23218,-0.21559 -3.48906,-0.03115 z" style="fill:#f07c00;fill-rule:evenodd;stroke:#000000;stroke-width:0.365651;stroke-linecap:round;stroke-linejoin:round;stroke-dasharray:none" id="path223" inkscape:connector-curvature="0" data-index="13"></path>
      <path transform="matrix(0.63941585,0,0,0.63941585,225.45374,91.51262)" d="m 24.649221,83.722649 a 1.0963823,1.0963823 0 0 1 1.09639,1.096478 1.0963823,1.0963823 0 1 1 -1.09639,-1.096478 z" style="fill:#f07c00;fill-rule:evenodd;stroke:#000000;stroke-width:0.365651;stroke-linecap:round;stroke-linejoin:round;stroke-dasharray:none" id="path225" inkscape:connector-curvature="0" data-index="14"></path>
      <path transform="matrix(0.63941585,0,0,0.63941585,225.45374,91.51262)" d="m 37.341961,99.908058 c -1.20541,-1.089259 -3.24755,-2.192859 -4.24743,-2.237782 h -2.38139 v 2.406644 l 0.59957,0.55731 5.53102,-0.13505 z" style="fill:#ffffff;fill-rule:evenodd;stroke:#000000;stroke-width:0.365651;stroke-linecap:round;stroke-linejoin:round;stroke-dasharray:none" id="path227" inkscape:connector-curvature="0" data-index="15"></path>
      <path transform="matrix(0.63941585,0,0,0.63941585,225.45374,91.51262)" d="m 30.814581,97.982741 c 0.70081,0 1.40171,0 2.10253,0 1.09686,0.06905 1.89331,0.613153 2.56705,1.351103" style="fill:#ffffff;fill-rule:evenodd;stroke:#000000;stroke-width:0.182825;stroke-linecap:round;stroke-linejoin:round;stroke-dasharray:none" id="path229" inkscape:connector-curvature="0" data-index="16"></path>
      <path transform="matrix(0.63941585,0,0,0.63941585,225.45374,91.51262)" d="m 19.787691,97.43322 c 3.35401,-0.464613 6.73927,-0.428429 10.15825,0.146165 l 0.0487,2.728425 1.02316,0.70641 v 6.43118 l -1.24236,2.14366 c -0.43736,0.42834 -0.87006,0.48931 -1.21805,-0.2192 -0.2681,-0.35634 -0.47087,-1.49508 -0.60907,-3.41043 l -0.33298,2.97422 c -0.0519,0.48683 0.0321,0.70205 0.33298,0.77727 v 5.96827 c -2.17452,1.33163 -4.01237,0.99989 -5.72466,0.0487 v -6.35805 c 0.24731,-0.0743 0.3439,-0.38521 0.34105,-0.85258 l 0.0732,-2.09504 -0.51161,0.0244 c -0.12671,1.37276 -0.55048,2.56554 -1.26668,3.58091 -1.27754,-1.33449 -2.01179,-2.72215 -1.92451,-4.18998 v -4.94512 l 0.80387,-0.53594 z" style="fill:#ffffff;fill-rule:evenodd;stroke:#000000;stroke-width:0.365651;stroke-linecap:round;stroke-linejoin:round;stroke-dasharray:none" id="path231" inkscape:connector-curvature="0" data-index="17"></path>
      <path transform="matrix(0.63941585,0,0,0.63941585,225.45374,91.51262)" d="m 16.116371,102.76441 h 3.71994 l 0.92372,1.72254 -2.2846,-0.61894 c -0.86617,-0.0816 -1.63175,-0.52398 -2.35906,-1.1036 z" style="fill:#000000;fill-rule:evenodd;stroke:#000000;stroke-width:0.538409;stroke-linecap:butt;stroke-linejoin:miter;stroke-dasharray:none" id="path233" inkscape:connector-curvature="0" data-index="18"></path>
      <path transform="matrix(0.63941585,0,0,0.63941585,225.45374,91.51262)" d="m 20.760031,104.48695 -0.42026,1.76861 c -0.11833,0.52987 -0.19498,0.70291 0.0352,1.16695 l 0.4724,0.92173" style="fill:none;stroke:#000000;stroke-width:0.182825;stroke-linecap:round;stroke-linejoin:round;stroke-dasharray:none" id="path235" inkscape:connector-curvature="0" data-index="19"></path>
      <path transform="matrix(0.63941585,0,0,0.63941585,225.45374,91.51262)" d="m 22.683071,109.49058 c 2.16921,2.29951 2.75748,1.91696 4.3274,0 z" style="fill:#000000;fill-rule:evenodd;stroke:#000000;stroke-width:0.538409;stroke-linecap:butt;stroke-linejoin:miter;stroke-dasharray:none" id="path237" inkscape:connector-curvature="0" data-index="20"></path>
      <path transform="matrix(0.63941585,0,0,0.63941585,225.45374,91.51262)" d="m 25.063221,111.07237 v 2.62908" style="fill:none;stroke:#000000;stroke-width:0.182825;stroke-linecap:round;stroke-linejoin:round;stroke-dasharray:none" id="path239" inkscape:connector-curvature="0" data-index="21"></path>
      <path transform="matrix(0.63941585,0,0,0.63941585,225.45374,91.51262)" d="m 23.581911,114.25068 c 0.86664,-0.7427 1.92826,-0.73491 3.17898,0" style="fill:none;stroke:#000000;stroke-width:0.182825;stroke-linecap:round;stroke-linejoin:round;stroke-dasharray:none" id="path241" inkscape:connector-curvature="0" data-index="22"></path>
      <path transform="matrix(0.63941585,0,0,0.63941585,225.45374,91.51262)" d="m 19.380631,103.18885 a 0.94242902,0.94242902 0 0 1 0.94243,0.94243 0.94242902,0.94242902 0 1 1 -0.94243,-0.94243 z" style="fill:#ff0000;fill-rule:evenodd;stroke:#1b1918;stroke-width:0.538409;stroke-linecap:butt;stroke-linejoin:miter;stroke-dasharray:none" id="path243" inkscape:connector-curvature="0" data-index="23"></path>
      <path transform="matrix(0.63941585,0,0,0.63941585,225.45374,91.51262)" d="m 33.794011,102.76441 h -3.71986 l -0.92371,1.72254 2.2845,-0.61894 c 0.86617,-0.0816 1.63175,-0.52398 2.35907,-1.1036 z" style="fill:#000000;fill-rule:evenodd;stroke:#000000;stroke-width:0.538409;stroke-linecap:butt;stroke-linejoin:miter;stroke-dasharray:none" id="path245" inkscape:connector-curvature="0" data-index="24"></path>
      <path transform="matrix(0.63941585,0,0,0.63941585,225.45374,91.51262)" d="m 29.150441,104.48695 0.42016,1.76861 c 0.11834,0.52987 0.19498,0.70291 -0.0351,1.16695 l -0.4725,0.92173" style="fill:none;stroke:#000000;stroke-width:0.182825;stroke-linecap:round;stroke-linejoin:round;stroke-dasharray:none" id="path247" inkscape:connector-curvature="0" data-index="25"></path>
      <path transform="matrix(0.63941585,0,0,0.63941585,225.45374,91.51262)" d="m 30.529751,103.18885 a 0.94242902,0.94242902 0 0 0 -0.94244,0.94243 0.94242902,0.94242902 0 1 0 0.94244,-0.94243 z" style="fill:#ff0000;fill-rule:evenodd;stroke:#1b1918;stroke-width:0.538409;stroke-linecap:butt;stroke-linejoin:miter;stroke-dasharray:none" id="path249" inkscape:connector-curvature="0" data-index="26"></path>
      <path transform="matrix(0.63941585,0,0,0.63941585,225.45374,91.51262)" d="m 23.903961,117.13543 h 1.81315 l 0.018,7.91164 c -0.0475,1.12771 -0.13315,1.89749 -0.70215,2.45393 -0.55436,-0.49822 -0.76168,-1.36848 -0.85523,-2.36047 z" style="fill:#ffec00;fill-rule:evenodd;stroke-width:0.949742" id="path251" inkscape:connector-curvature="0" data-index="27"></path>
      <path transform="matrix(0.63941585,0,0,0.63941585,225.45374,91.51262)" d="m 23.903961,117.13543 h 1.81315 l 0.018,7.91164 c -0.0475,1.12771 -0.13315,1.89749 -0.70215,2.45393 -0.55436,-0.49822 -0.76168,-1.36848 -0.85523,-2.36047 z" style="fill:#ffffff;fill-opacity:0;fill-rule:evenodd;stroke-width:0.949742" id="path253" inkscape:connector-curvature="0" data-index="28"></path>
      <path transform="matrix(0.63941585,0,0,0.63941585,225.45374,91.51262)" d="m 20.798021,110.58591 0.53167,2.6684 -4.44584,3.19265 c -0.23743,0.16516 -0.65409,0.34846 -1.31283,0.5669 l -2.61568,0.82162 c 0.0654,0.25824 0.026,0.43252 -0.25197,0.41599 0.14617,0.3742 -0.20191,0.58865 -0.44476,0.29642 -0.16241,-0.20657 -0.53642,0.0342 -0.4272,0.31389 0.17941,0.54743 -0.18738,0.82114 -0.67982,0.58798 -0.27239,-0.11967 -0.56358,-0.52549 -0.65285,-0.80643 -0.24912,-0.56604 0.20837,-0.89636 0.63518,-0.70575 0.27543,0.2042 0.52322,0.10324 0.45597,-0.26488 -0.11378,-0.31845 0.10239,-0.5594 0.43337,-0.27571 0.0519,-0.17884 0.24219,-0.25586 0.43878,-0.1549 l 1.77374,-2.32592 c 0.48418,-0.5538 0.61211,-0.78212 1.20798,-1.14416 l 4.74244,-3.36636 c 0.10893,-0.0818 0.223,-0.0817 0.30715,-0.0491 z" style="fill:#ffec00;fill-rule:evenodd;stroke-width:0.949742" id="path255" inkscape:connector-curvature="0" data-index="29"></path>
      <path transform="matrix(0.63941585,0,0,0.63941585,225.45374,91.51262)" d="m 20.194081,111.29689 -4.32702,3.07147 c -0.49102,0.34855 -0.68154,0.5083 -1.04985,0.99124 l -1.12772,1.47875 1.66233,-0.52217 c 0.31522,-0.0991 0.83445,-0.26858 1.1055,-0.46319 l 4.06319,-2.91789 z" style="fill:#ffffff;fill-opacity:0;fill-rule:evenodd;stroke-width:0.949742" id="path257" inkscape:connector-curvature="0" data-index="30"></path>
      <path transform="matrix(0.63941585,0,0,0.63941585,225.45374,91.51262)" d="m 29.175131,110.58591 -0.53167,2.6684 4.44584,3.19265 c 0.23743,0.16516 0.65409,0.34846 1.31283,0.5669 l 2.61568,0.82162 c -0.0654,0.25824 -0.026,0.43252 0.25198,0.41599 -0.14618,0.3742 0.2019,0.58865 0.44476,0.29642 0.1624,-0.20657 0.5364,0.0342 0.42719,0.31389 -0.17941,0.54743 0.18738,0.82114 0.67982,0.58798 0.27239,-0.11967 0.56358,-0.52549 0.65286,-0.80643 0.24911,-0.56604 -0.20838,-0.89636 -0.63519,-0.70575 -0.27543,0.2042 -0.52311,0.10324 -0.45597,-0.26488 0.11387,-0.31845 -0.10238,-0.5594 -0.43337,-0.27571 -0.0519,-0.17884 -0.24219,-0.25586 -0.43878,-0.1549 l -1.77365,-2.32592 c -0.48427,-0.5538 -0.61219,-0.78212 -1.20797,-1.14416 l -4.74245,-3.36636 c -0.10903,-0.0818 -0.22299,-0.0817 -0.30724,-0.0491 z" style="fill:#ffec00;fill-rule:evenodd;stroke-width:0.949742" id="path259" inkscape:connector-curvature="0" data-index="31"></path>
      <path transform="matrix(0.63941585,0,0,0.63941585,225.45374,91.51262)" d="m 29.779071,111.29689 4.32712,3.07147 c 0.49092,0.34855 0.68143,0.5083 1.04975,0.99124 l 1.12773,1.47875 -1.66235,-0.52217 c -0.31521,-0.0991 -0.83434,-0.26858 -1.10549,-0.46319 l -4.0631,-2.91789 z" style="fill:#ffffff;fill-opacity:0;fill-rule:evenodd;stroke-width:0.949742" id="path261" inkscape:connector-curvature="0" data-index="32"></path>
      <g transform="matrix(0.34399786,0,0,0.34399786,249.02655,126.8035)" id="Layer1001">
        <g id="g444">
          
          <path inkscape:connector-curvature="0" id="path276" style="fill: rgb(121, 40, 202); fill-rule: evenodd; stroke-linecap: round; stroke-linejoin: round; stroke-dasharray: none; opacity: 1; visibility: hidden;" d="m 210.388,105.82833 c 0,1.0399 0.025,2.5816 0.075,4.6324 0.0501,2.058 0.0751,3.5924 0.0751,4.6177 0,0.2982 -0.2086,0.4727 -0.6172,0.5309 -0.5505,0.0873 -1.7932,0.1309 -3.7367,0.1309 -1.9516,0 -3.2111,-0.0436 -3.7616,-0.1309 -0.3586,-0.0582 -0.5755,-0.1527 -0.6588,-0.2763 -0.0334,-0.0582 -0.0501,-0.2691 -0.0501,-0.64 0,-0.9817 0.025,-2.4507 0.0751,-4.4214 0.05,-1.9635 0.0751,-3.447 0.0751,-4.4433 0,-4.0288 -0.1836,-7.243101 -0.5422,-9.628401 -0.0334,-0.2254 -0.0501,-0.3781 -0.0501,-0.4436 0,-0.2908 0.2253,-0.429 0.6589,-0.429 0.4588,0 1.1594,0.0436 2.0936,0.1309 0.9341,0.08 1.643,0.1236 2.1101,0.1236 0.4755,0 1.1844,-0.0364 2.1269,-0.1091 0.9424,-0.0654 1.6514,-0.1018 2.1269,-0.1018 0.392,0 0.5838,0.1382 0.5838,0.4218 0,0.0582 -0.0167,0.1963 -0.0501,0.4072 -0.3503,2.7707 -0.5337,5.977801 -0.5337,9.628401 z m 0.6338,-15.824201 c 0,2.4652 -1.593,3.7015 -4.7875,3.7015 -1.3678,0 -2.5022,-0.3127 -3.3946,-0.9381 -0.9758,-0.6763 -1.4679,-1.5999 -1.4679,-2.7634 0,-1.1127 0.5087,-2.0217 1.5179,-2.7271 0.9258,-0.6545 2.0435,-0.9818 3.3446,-0.9818 1.2678,0 2.3688,0.3346 3.2946,0.9963 1.0008,0.7127 1.4929,1.6144 1.4929,2.7126 z m -22.5029,14.951501 c 0,-1.1199 -0.4504,-2.1016 -1.3429,-2.9525 -0.9007,-0.8436 -1.9767,-1.2653 -3.2528,-1.2653 -1.3345,0 -2.3938,0.4217 -3.1861,1.2653 -0.7924,0.8509 -1.1844,1.8617 -1.1844,3.0398 0,1.149 0.4003,2.1235 1.1927,2.9161 0.8174,0.8509 1.8767,1.2799 3.1778,1.2799 1.3011,0 2.3937,-0.429 3.2778,-1.2799 0.8758,-0.8508 1.3179,-1.8544 1.3179,-3.0034 z m 9.2163,-19.576601 c 0,-0.3127 -0.0667,0.1527 -0.2001,1.4035 -0.1752,1.5781 -0.317,3.5924 -0.4171,6.0504 -0.1251,2.7853 -0.1918,5.9559 -0.1918,9.504701 0,5.8614 0.1835,10.0429 0.5588,12.5227 0.0334,0.2763 0.0501,0.4436 0.0501,0.5163 0,0.1527 -0.1251,0.2473 -0.367,0.2764 -0.5839,0.0727 -2.7441,0.109 -6.4724,0.109 -0.8841,0 -1.3845,-0.1527 -1.5179,-0.4508 -0.0334,-0.5382 -0.0668,-1.0763 -0.1001,-1.6217 -0.0167,-0.1091 -0.0751,-0.2254 -0.1918,-0.3418 -0.1001,0.0436 -0.2169,0.1309 -0.367,0.2618 -1.7599,1.5053 -3.9618,2.2544 -6.5975,2.2544 -3.4363,0 -6.1887,-1.0472 -8.2572,-3.1489 -1.9767,-2.0071 -2.9609,-4.5306 -2.9609,-7.5848 0,-3.098 0.9675,-5.650501 2.9109,-7.650301 2.0518,-2.1308 4.8208,-3.1998 8.3072,-3.1998 2.4605,0 4.3705,0.6836 5.7384,2.0507 0.2335,0.2255 0.392,0.3346 0.4921,0.3346 0.1501,0 0.2168,-0.1819 0.2168,-0.5527 0,-1.0908 -0.025,-2.7271 -0.0917,-4.8942 -0.0668,-2.1744 -0.1001,-3.8033 -0.1001,-4.8796 0,-0.4145 0.1334,-0.6472 0.392,-0.7054 1.0426,-0.0436 2.4772,-0.1309 4.2954,-0.2545 3.2612,-0.3564 4.7041,-0.5309 4.3288,-0.5309 0.3587,0 0.5421,0.1745 0.5421,0.5309 z M 160.853,105.13023 c 0,-1.1272 -0.392,-2.1162 -1.1927,-2.9744 -0.8007,-0.8581 -1.8349,-1.2871 -3.1027,-1.2871 -1.2844,0 -2.3437,0.4363 -3.1777,1.3162 -0.7841,0.8291 -1.1761,1.8035 -1.1761,2.9453 0,1.1489 0.392,2.138 1.1761,2.9597 0.834,0.8799 1.8933,1.3163 3.1777,1.3163 1.2678,0 2.3187,-0.4364 3.1527,-1.3163 0.7674,-0.8217 1.1427,-1.8108 1.1427,-2.9597 z m 8.0154,0 c 0,3.2361 -1.1344,5.8613 -3.403,7.883 -2.277,2.0144 -5.263,3.0252 -8.9578,3.0252 -3.5865,0 -6.5307,-0.9963 -8.8494,-2.9889 -2.3104,-1.9853 -3.4697,-4.5451 -3.4697,-7.6648 0,-3.2943 1.1093,-5.970501 3.3279,-8.021201 2.2102,-2.058 5.2129,-3.0834 8.9912,-3.0834 3.6782,0 6.6641,1.0108 8.9411,3.0179 2.2853,2.0072 3.4197,4.617901 3.4197,7.832201 z m -36.2067,1.1926 c 0,-1.2799 -0.6172,-2.1453 -1.8349,-2.6034 -0.784,-0.2836 -2.0518,-0.4218 -3.8116,-0.4218 -2.1019,0 -3.2445,0.0654 -3.4197,0.1963 -0.1835,0.1382 -0.2753,1.0109 -0.2753,2.6107 0,1.6799 0.1085,2.6035 0.317,2.7852 0.2169,0.1746 1.3929,0.2619 3.5197,0.2619 1.7599,0 3.0027,-0.1164 3.72,-0.3636 1.1843,-0.4073 1.7848,-1.2291 1.7848,-2.4653 z m -0.7339,-11.911801 c 0,-1.2218 -0.7006,-2.0289 -2.1019,-2.4289 -0.784,-0.2109 -2.0684,-0.32 -3.8617,-0.32 -1.7599,0 -2.644,0.1163 -2.644,0.3418 0,0.2691 -0.025,0.6763 -0.0833,1.2217 -0.0585,0.5527 -0.0835,0.96 -0.0835,1.229 0,1.4181 0.1418,2.2108 0.417,2.3853 0.1753,0.1309 1.2095,0.1891 3.1028,0.1891 3.503,0 5.2546,-0.8727 5.2546,-2.618 z m 10.5008,11.991801 c 0,2.6179 -0.9341,4.7851 -2.8024,6.5013 -2.1352,1.9708 -5.8885,2.9598 -11.2432,2.9598 -0.4087,0 -0.9925,-0.007 -1.7598,-0.0219 -0.7841,0 -1.3596,0 -1.7349,0 -6.0136,0 -9.5834,-0.1018 -10.7261,-0.3199 -0.4754,-0.08 -0.7089,-0.3054 -0.7089,-0.6618 0,-1.5199 0.1001,-3.8179 0.3003,-6.9013 0.2085,-3.0834 0.3085,-5.3887 0.3085,-6.9231 0,-1.643501 -0.1,-4.741401 -0.2919,-9.286501 -0.05,-1.1636 -0.1417,-2.9162 -0.2668,-5.2433 l -0.0251,-0.2981 c -0.0167,-0.2691 0.2419,-0.4363 0.7674,-0.4872 0.5338,-0.0582 2.4187,-0.0873 5.6549,-0.0873 5.1962,0 8.2405,0.0145 9.1163,0.0436 4.0118,0.1236 6.9644,0.6909 8.8744,1.7017 2.5189,1.3526 3.7866,3.6288 3.7866,6.8431 0,0.8363 -0.3002,1.7235 -0.8841,2.6616 -0.4253,0.6691 -0.9758,1.3308 -1.6597,1.9999 -0.6006,0.5817 -0.9008,0.8508 -0.9008,0.8144 0,0.0946 0.2085,0.2546 0.6339,0.465501 1.1343,0.5672 2.0351,1.4689 2.6856,2.7052 0.5839,1.1054 0.8758,2.2835 0.8758,3.5343 z M 109.3497,96.243629 c 0,1.0472 -0.0584,2.6252 -0.1752,4.726901 -0.1168,2.1016 -0.1668,3.6797 -0.1668,4.7342 0,1.018 0.0417,2.5525 0.1168,4.5959 0.0834,2.0508 0.1251,3.5779 0.1251,4.5815 0,0.3854 -0.2002,0.6254 -0.6089,0.7272 -0.6172,0.1455 -1.935,0.2109 -3.9367,0.2109 -1.7766,0 -3.011,-0.0436 -3.7116,-0.1236 -0.3086,-0.0436 -0.5088,-0.2182 -0.5922,-0.5163 -0.0417,-0.4218 -0.0918,-0.8509 -0.1418,-1.2726 -0.0834,-0.6546 -0.2002,-0.9818 -0.342,-0.9818 0.2252,0 -0.5921,0.48 -2.4688,1.4471 -1.8766,0.9672 -3.5781,1.4472 -5.1044,1.4472 -4.3205,0 -6.881,-1.6944 -7.6734,-5.0905 -0.3587,-1.578 -0.5422,-3.8615 -0.5422,-6.8576 0,-3.2434 0.3003,-5.796001 0.9091,-7.672201 0.1753,-0.5817 0.5088,-0.8726 1.0009,-0.8726 0.7507,0 1.885,0.007 3.4197,0.0218 1.5347,0.0145 2.669,0.0218 3.4197,0.0218 0.5087,0 0.759,0.1818 0.759,0.5527 0,0.1018 -0.0167,0.2473 -0.0501,0.4436 -0.3419,1.9344 -0.5087,3.897901 -0.5087,5.883201 0,2.4725 0.0833,4.1597 0.2669,5.0687 0.2919,1.5635 1.3595,2.3489 3.2027,2.3489 0.709,0 1.493,-0.2764 2.3271,-0.8363 0.8424,-0.5527 1.2761,-1.1272 1.3094,-1.7235 0.0334,-0.5236 0.0501,-4.087 0.0501,-10.697401 0,-0.4654 0.0417,-0.7417 0.1251,-0.829 0.0918,-0.1381 0.3837,-0.2109 0.8758,-0.2109 0.8006,0 2.0017,0.007 3.6031,0.0218 1.6097,0.0146 2.8108,0.0218 3.6031,0.0218 0.4921,0 0.7758,0.1019 0.8591,0.32 0.0334,0.1091 0.0501,0.2836 0.0501,0.5091 z m -38.1166,4.261501 c 0,-2.399801 -0.8258,-4.363301 -2.4689,-5.883201 -1.6597,-1.5781 -3.8617,-2.3635 -6.5974,-2.3635 -2.5106,0 -3.7617,0.2909 -3.7617,0.8727 0,0.8363 -0.0166,2.1017 -0.05,3.7815 -0.0333,1.6872 -0.05,2.9453 -0.05,3.781601 0,0.8217 0.0167,2.0652 0.05,3.716 0.0334,1.6581 0.05,2.9016 0.05,3.7452 0,0.6109 1.3012,0.9163 3.9035,0.9163 2.8191,0 5.0377,-0.8218 6.6475,-2.4508 1.518,-1.5489 2.277,-3.5924 2.277,-6.1158 z m 9.3582,0 c 0,4.1742 -1.5431,7.7957 -4.6208,10.8646 -2.719,2.7416 -6.539,4.1814 -11.46,4.3269 -0.9425,0.0291 -3.5447,0.0436 -7.7984,0.0436 -0.7924,0 -1.9935,-0.0218 -3.6032,-0.0654 -1.6014,-0.0437 -2.8025,-0.0655 -3.6032,-0.0655 -0.4671,0 -0.7089,-0.1599 -0.7089,-0.4872 0,-1.5635 0.075,-3.9124 0.2085,-7.0467 0.1418,-3.1271 0.2085,-5.4759 0.2085,-7.0395 0,-1.636201 -0.0667,-4.079701 -0.2085,-7.337601 -0.1335,-3.2579 -0.2085,-5.7014 -0.2085,-7.3231 0,-0.2981 0.2418,-0.4726 0.7089,-0.5308 1.1594,-0.1091 3.0527,-0.1673 5.6967,-0.1673 5.0127,0 8.2656,0.0655 9.7502,0.1891 3.8617,0.3418 6.881,1.1926 9.0662,2.5598 2.0518,1.2726 3.6699,3.0688 4.8626,5.3669 1.1343,2.1743 1.7099,4.4069 1.7099,6.712201 z" data-index="34"></path>
          
        </g>
      </g>
    </g>
  </g>
</svg>